<?xml version="1.0" encoding="UTF-8"?>
<svg width="949px" height="929px" viewBox="0 0 949 929" version="1.1" xmlns="http://www.w3.org/2000/svg" xmlns:xlink="http://www.w3.org/1999/xlink">
    <title>编组</title>
    <g id="页面-1" stroke="none" stroke-width="1" fill="none" fill-rule="evenodd">
        <g id="编组" transform="translate(0.735262, 0.527093)" fill-rule="nonzero">
            <g id="ico" transform="translate(109.432945, 212.472907)" fill="#50FA82">
                <g id="2" transform="translate(436.134109, 0.000000)">
                    <polygon id="路径" points="187.05846 210.255741 105.589939 210.255741 105.589939 291.730846 187.05846 291.730846"></polygon>
                    <polygon id="路径" points="292.491405 106.41858 211.022885 106.41858 211.022885 187.893685 292.491405 187.893685"></polygon>
                    <polygon id="路径" points="292.334411 209.444645 210.865891 209.444645 210.865891 291.312266 292.334411 291.312266"></polygon>
                    <polygon id="路径" points="292.793722 0 211.325201 0 211.325201 81.475105 292.793722 81.475105"></polygon>
                    <polygon id="路径" points="81.4685204 210.524895 0 210.524895 0 292 81.4685204 292"></polygon>
                    <polygon id="路径" points="81.4685204 316.524895 4.54747351e-13 316.524895 4.54747351e-13 398 81.4685204 398"></polygon>
                    <polygon id="路径" points="81.4685204 420.524895 4.54747351e-13 420.524895 4.54747351e-13 502 81.4685204 502"></polygon>
                    <polygon id="路径" points="186.46852 419.524895 105 419.524895 105 501 186.46852 501"></polygon>
                    <polygon id="路径" points="292.46852 419.524895 211 419.524895 211 501 292.46852 501"></polygon>
                    <polygon id="路径" points="81.4914051 0.269153822 0.0228846627 0.269153822 0.0228846627 81.7442588 81.4914051 81.7442588"></polygon>
                    <polygon id="路径" points="186.901466 0.527092902 105.432945 0.527092902 105.432945 82.0021979 186.901466 82.0021979"></polygon>
                </g>
                <g id="+" transform="translate(0.000000, 208.527093)">
                    <polygon id="路径" points="187.192569 211.728648 105.724048 211.728648 105.724048 293.203753 187.192569 293.203753"></polygon>
                    <polygon id="路径" points="186.625514 105.891488 105.156994 105.891488 105.156994 187.366592 186.625514 187.366592"></polygon>
                    <polygon id="路径" points="81.4685204 105.917552 0 105.917552 0 187.785173 81.4685204 187.785173"></polygon>
                    <polygon id="路径" points="292.927831 105.472907 211.45931 105.472907 211.45931 186.948012 292.927831 186.948012"></polygon>
                    <polygon id="路径" points="187.035575 0 105.567055 0 105.567055 81.475105 187.035575 81.475105"></polygon>
                </g>
            </g>
            <g id="bg" fill="#0E0E0E">
                <polygon id="路径" points="190.46852 423 109 423 109 504.475105 190.46852 504.475105"></polygon>
                <polygon id="路径" points="402.46852 423 321 423 321 504.475105 402.46852 504.475105"></polygon>
                <polygon id="路径" points="402.46852 630 321 630 321 711.475105 402.46852 711.475105"></polygon>
                <polygon id="路径" points="190.46852 735 109 735 109 816.475105 190.46852 816.475105"></polygon>
                <polygon id="路径" points="297.46852 735 216 735 216 816.475105 297.46852 816.475105"></polygon>
                <polygon id="路径" points="402.46852 735 321 735 321 816.475105 402.46852 816.475105"></polygon>
                <polygon id="路径" points="626.46852 735 545 735 545 816.475105 626.46852 816.475105"></polygon>
                <polygon id="路径" points="733.46852 735 652 735 652 816.475105 733.46852 816.475105"></polygon>
                <polygon id="路径" points="840.46852 735 759 735 759 816.475105 840.46852 816.475105"></polygon>
                <polygon id="路径" points="947.46852 735 866 735 866 816.475105 947.46852 816.475105"></polygon>
                <polygon id="路径" points="947.46852 630 866 630 866 711.475105 947.46852 711.475105"></polygon>
                <polygon id="路径" points="733.46852 528 652 528 652 609.475105 733.46852 609.475105"></polygon>
                <polygon id="路径" points="838.46852 528 757 528 757 609.475105 838.46852 609.475105"></polygon>
                <polygon id="路径" points="947.46852 525 866 525 866 606.475105 947.46852 606.475105"></polygon>
                <polygon id="路径" points="947.46852 420 866 420 866 501.475105 947.46852 501.475105"></polygon>
                <polygon id="路径" points="947.46852 315 866 315 866 396.475105 947.46852 396.475105"></polygon>
                <polygon id="路径" points="947.46852 210 866 210 866 291.475105 947.46852 291.475105"></polygon>
                <polygon id="路径" points="947.46852 105 866 105 866 186.475105 947.46852 186.475105"></polygon>
                <polygon id="路径" points="838.46852 105 757 105 757 186.475105 838.46852 186.475105"></polygon>
                <polygon id="路径" points="729.46852 105 648 105 648 186.475105 729.46852 186.475105"></polygon>
                <polygon id="路径" points="620.46852 105 539 105 539 186.475105 620.46852 186.475105"></polygon>
                <polygon id="路径" points="626.46852 315 545 315 545 396.475105 626.46852 396.475105"></polygon>
                <polygon id="路径" points="733.46852 315 652 315 652 396.475105 733.46852 396.475105"></polygon>
                <polygon id="路径" points="402.46852 105 321 105 321 186.475105 402.46852 186.475105"></polygon>
                <polygon id="路径" points="402.46852 216 321 216 321 297.475105 402.46852 297.475105"></polygon>
                <polygon id="路径" points="402.46852 315 321 315 321 396.475105 402.46852 396.475105"></polygon>
                <polygon id="路径" points="515.46852 315 434 315 434 396.475105 515.46852 396.475105"></polygon>
                <polygon id="路径" points="513.46852 420 432 420 432 501.475105 513.46852 501.475105"></polygon>
                <polygon id="路径" points="513.46852 528 432 528 432 609.475105 513.46852 609.475105"></polygon>
                <polygon id="路径" points="515.46852 630 434 630 434 711.475105 515.46852 711.475105"></polygon>
                <polygon id="路径" points="515.46852 735 434 735 434 816.475105 515.46852 816.475105"></polygon>
                <polygon id="路径" points="515.46852 846 434 846 434 927.475105 515.46852 927.475105"></polygon>
                <polygon id="路径" points="297.46852 315 216 315 216 396.475105 297.46852 396.475105"></polygon>
                <polygon id="路径" points="297.46852 216 216 216 216 297.475105 297.46852 297.475105"></polygon>
                <polygon id="路径" points="297.46852 105 216 105 216 186.475105 297.46852 186.475105"></polygon>
                <polygon id="路径" points="190.46852 315 109 315 109 396.475105 190.46852 396.475105"></polygon>
                <polygon id="路径" points="190.46852 216 109 216 109 297.475105 190.46852 297.475105"></polygon>
                <polygon id="路径" points="190.46852 105 109 105 109 186.475105 190.46852 186.475105"></polygon>
                <polygon id="路径" points="81.4685204 105 0 105 0 186.475105 81.4685204 186.475105"></polygon>
                <polygon id="路径" points="81.4685204 0 0 0 0 81.475105 81.4685204 81.475105"></polygon>
                <polygon id="路径" points="190.46852 0 109 0 109 81.475105 190.46852 81.475105"></polygon>
                <polygon id="路径" points="295.46852 0 214 0 214 81.475105 295.46852 81.475105"></polygon>
                <polygon id="路径" points="402.46852 0 321 0 321 81.475105 402.46852 81.475105"></polygon>
                <polygon id="路径" points="515.46852 0 434 0 434 81.475105 515.46852 81.475105"></polygon>
                <polygon id="路径" points="515.46852 0 434 0 434 81.475105 515.46852 81.475105"></polygon>
                <polygon id="路径" points="513.46852 105 432 105 432 186.475105 513.46852 186.475105"></polygon>
                <polygon id="路径" points="515.46852 210 434 210 434 291.475105 515.46852 291.475105"></polygon>
                <polygon id="路径" points="838.46852 0 757 0 757 81.475105 838.46852 81.475105"></polygon>
                <polygon id="路径" points="620.46852 0 539 0 539 81.475105 620.46852 81.475105"></polygon>
                <polygon id="路径" points="733.46852 0 652 0 652 81.475105 733.46852 81.475105"></polygon>
                <polygon id="路径" points="838.46852 0 757 0 757 81.475105 838.46852 81.475105"></polygon>
                <polygon id="路径" points="943.46852 0 862 0 862 81.475105 943.46852 81.475105"></polygon>
                <polygon id="路径" points="81.4685204 216 0 216 0 297.475105 81.4685204 297.475105"></polygon>
                <polygon id="路径" points="81.4685204 318 0 318 0 399.475105 81.4685204 399.475105"></polygon>
                <polygon id="路径" points="81.4685204 423 0 423 0 504.475105 81.4685204 504.475105"></polygon>
                <polygon id="路径" points="81.4685204 528 0 528 0 609.475105 81.4685204 609.475105"></polygon>
                <polygon id="路径" points="81.4685204 630 0 630 0 711.475105 81.4685204 711.475105"></polygon>
                <polygon id="路径" points="81.4685204 735 0 735 0 816.475105 81.4685204 816.475105"></polygon>
                <polygon id="路径" points="81.4685204 846 0 846 0 927.475105 81.4685204 927.475105"></polygon>
                <polygon id="路径" points="188.46852 846 107 846 107 927.475105 188.46852 927.475105"></polygon>
                <polygon id="路径" points="295.46852 846 214 846 214 927.475105 295.46852 927.475105"></polygon>
                <polygon id="路径" points="400.46852 846 319 846 319 927.475105 400.46852 927.475105"></polygon>
                <polygon id="路径" points="620.46852 846 539 846 539 927.475105 620.46852 927.475105"></polygon>
                <polygon id="路径" points="733.46852 846 652 846 652 927.475105 733.46852 927.475105"></polygon>
                <polygon id="路径" points="838.46852 840 757 840 757 921.475105 838.46852 921.475105"></polygon>
                <polygon id="路径" points="947.46852 840 866 840 866 921.475105 947.46852 921.475105"></polygon>
                <polygon id="路径" points="190.46852 630 109 630 109 711.475105 190.46852 711.475105"></polygon>
            </g>
        </g>
    </g>
</svg>