<?xml version="1.0" encoding="UTF-8"?>
<svg width="67px" height="67px" viewBox="0 0 67 67" version="1.1" xmlns="http://www.w3.org/2000/svg" xmlns:xlink="http://www.w3.org/1999/xlink">
    <title>Consensus</title>
    <g id="页面-1" stroke="none" stroke-width="1" fill="none" fill-rule="evenodd">
        <g id="Consensus" fill-rule="nonzero">
            <path d="M33.5,67 C52.0015391,67 67,52.0015391 67,33.5 C67,14.9984609 52.0015391,0 33.5,0 C14.9984609,0 0,14.9984609 0,33.5 C0,52.0015391 14.9984609,67 33.5,67 Z" id="椭圆形" fill-opacity="0.15" fill="#7E7E7E"></path>
            <g id="编组" transform="translate(9.000000, 8.000000)">
                <path d="M46.5821161,36.1591388 L45.8923892,37.5546043 C44.6191857,38.7637688 43.2343293,38.9930622 41.7324175,38.0723058 C41.4586877,37.9021271 41.2822041,38.057975 41.0841102,38.1887439 C37.262699,40.6876839 33.4448894,43.1937894 29.6162748,45.6837727 C29.2741126,45.9059007 29.1768665,46.1369854 29.2290913,46.5346662 C29.3569519,47.5163287 29.0219931,48.3797617 28.3412705,49.0819728 C27.5308864,49.9203269 26.5188067,50.1352895 25.4076801,49.9525713 L24.2137141,49.3685896 C23.5473983,48.7308673 23.0989858,47.9713328 23.1187952,47.0219147 C23.1296003,46.5454143 22.9459132,46.3161209 22.5443229,46.1262373 C20.8497197,45.327293 19.1659216,44.5032698 17.4785219,43.6828293 C14.41527,42.1942134 11.3502172,40.6984321 8.28696536,39.2080248 C8.0294433,39.08263 7.78632807,38.9106599 7.48738638,39.1668237 C6.68240484,39.8564953 5.74776185,40.026674 4.73748301,39.8564953 L3.54351711,39.274305 C3.41745736,39.1363706 3.28599505,39.0002277 3.16533786,38.8587106 C2.57785022,38.1647636 2.32513885,37.2498027 2.47372981,36.3546905 C2.62232077,35.4595783 3.15732535,34.6740045 3.93790404,34.2047707 C4.3268884,33.9736859 4.38811742,33.7336444 4.35390121,33.3359636 C3.97212043,29.0228538 3.61014509,24.7080321 3.26798652,20.3916333 C3.2103592,19.6518038 3.11671482,19.0355777 2.29372475,18.8259892 C2.20188121,18.8027016 2.12264366,18.7185079 2.04160525,18.6540191 C0.732384718,17.6168246 0.474862661,15.9454906 1.39329797,14.4568747 C2.18567353,13.1670992 3.90188696,12.7156777 5.34437066,13.4465505 C5.76036783,13.6597218 6.08272061,13.7080883 6.51132376,13.4107234 C10.9288175,10.3654202 15.3589172,7.34161315 19.7944195,4.32318021 C20.1095689,4.10821762 20.2050141,3.90221181 20.1617937,3.52065323 C19.9564964,1.70601075 21.2387041,0.149323373 23.0143457,0.00959769363 C24.7755805,-0.128336631 26.2558821,1.23667578 26.2738906,3.06027503 C26.2774923,3.47228665 26.4269632,3.67470974 26.7745279,3.84488846 C30.9705167,5.88345029 35.1665054,7.93276026 39.3552908,9.98923564 C39.7172624,10.1647884 39.9891912,10.1755365 40.3295526,9.8996679 C41.037288,9.32643434 41.8692823,9.14371614 42.7535014,9.31568621 C44.0043896,9.54324726 44.9787141,10.5246011 45.1918571,11.7716337 C45.4133621,13.0990277 44.8623009,14.3243144 43.6593308,15.013986 C43.2721473,15.2343227 43.1676978,15.4815297 43.2181217,15.8845845 C43.2649438,16.2589777 43.2703464,16.6369535 43.2901558,17.0167208 C43.5818941,21.9590688 43.8772341,26.8996256 44.1581672,31.8419736 C44.1815783,32.2504025 44.3022355,32.5173144 44.6984233,32.6642055 C45.0153735,32.7824349 45.316116,32.9418655 45.5772398,33.1747416 C46.4704632,33.9754773 46.7333878,34.9893841 46.5821161,36.1555561 L46.5821161,36.1591388 L46.5821161,36.1591388 Z M8.14109622,35.1022395 C8.36620291,35.1989726 8.5642968,35.114779 8.76058984,35.064621 C11.389836,34.3892802 14.0154805,33.706774 16.6483284,33.0475554 C17.0030965,32.9579877 17.1543682,32.7949744 17.2155973,32.4349121 C17.3380553,31.7147874 17.6568064,31.0143677 18.2871051,30.6722189 C19.0974892,30.2315456 19.1659216,29.6368158 19.0056457,28.8844467 C18.9948406,28.8342888 18.9966414,28.7823395 18.9930397,28.7321816 C18.7589287,25.8713879 18.5248178,23.0105941 18.3015119,20.1515918 C18.2726983,19.7861554 18.1754522,19.5747755 17.7900695,19.4493807 C16.9562743,19.1753034 16.3727978,18.5823649 16.0360382,17.7690898 C15.9081776,17.4556027 15.7334948,17.3302079 15.3895318,17.3230425 C12.7242685,17.2746759 10.0572044,17.2155612 7.39014029,17.1385329 C7.01196104,17.1295761 6.79225691,17.2495969 6.62837924,17.5989111 C6.35406423,18.1828436 5.88064891,18.6512232 5.2921459,18.920931 C4.99500507,19.0642394 4.89595812,19.2254613 4.92297093,19.5550706 C5.31915871,24.1409391 5.70634222,28.7321816 6.08632232,33.3198414 C6.11153427,33.6172063 6.22138634,33.7784282 6.50051864,33.8805355 C7.08579604,34.0919153 7.60444186,34.4107765 7.98262111,34.9248953 C8.03124415,34.9929668 8.09607488,35.0502902 8.14109622,35.1004481 L8.14109622,35.1022395 Z M27.5092761,44.1217112 C27.9180699,44.3187602 28.2152107,44.5516364 28.6564199,44.2614369 C32.5012422,41.7230871 36.3604713,39.2044421 40.2178996,36.6875885 C40.4628157,36.5263666 40.5672652,36.3615619 40.5114388,36.0516576 C40.389309,35.4186977 40.488437,34.7632259 40.7923719,34.1940226 C40.9436436,33.9074058 40.902224,33.6870691 40.7041301,33.4452362 C38.9971685,31.3611612 37.2959558,29.2724335 35.6005111,27.1790769 C35.4132224,26.9497835 35.2313362,26.8888774 34.937797,26.9712797 C34.0898656,27.2323361 33.1685765,27.0952013 32.4346106,26.5986779 C32.1554783,26.4141684 31.9591853,26.4410387 31.6962606,26.6130088 C28.9769718,28.3828674 26.2540812,30.1437692 23.5275889,31.9028797 C23.2988805,32.0497708 23.2016345,32.2038273 23.2466558,32.4940268 C23.3997283,33.4667325 23.1566131,34.3444964 22.4794922,35.0771605 C22.272394,35.2992885 22.2255718,35.4837981 22.346229,35.7632494 C23.4519531,38.3069733 24.5450712,40.8524886 25.6363885,43.3997952 C25.7570456,43.6810379 25.9173216,43.8386771 26.2486787,43.8243463 C26.7169006,43.8046414 27.1635123,43.9174968 27.5074753,44.1217112 L27.5092761,44.1217112 Z M26.920397,19.4780424 C28.420508,20.2124978 29.9242208,20.9379966 31.4189292,21.6814088 C31.7322777,21.8372567 31.9681895,21.8318826 32.2527244,21.5918411 C32.9370487,21.0239816 33.7402294,20.7982709 34.6118425,20.9362052 C34.9864201,20.9953199 35.2133276,20.88963 35.4294301,20.5743515 C36.7224429,18.6755154 38.0298626,16.7874273 39.3426848,14.9047134 C39.6002069,14.5356943 39.7550803,14.206085 39.4255241,13.7976561 C39.2454387,13.5737367 39.1121756,13.2638323 39.1463918,12.9825896 C39.2742524,11.9203162 38.6313477,11.5047219 37.7921499,11.2145224 C37.5688441,11.1357028 37.3617459,11.0103079 37.1474443,10.904618 C33.4430886,9.09534956 29.7351311,7.28966386 26.0361779,5.46964732 C25.6561978,5.28334641 25.3644596,5.24751932 25.0204965,5.55921506 C24.6804441,5.88438426 24.2373924,6.08194608 23.7671025,6.11811778 C23.207037,6.14319675 23.0269517,6.46205791 22.8774808,6.93139289 C22.2067546,9.07054011 21.5182046,11.2041171 20.8119018,13.3319038 C20.6822403,13.7260019 20.6894438,13.9964965 21.0099957,14.2884873 C21.645697,14.8670949 21.9644481,15.624838 21.9374353,16.4918538 C21.9230284,16.9307357 22.0977112,17.1349502 22.4614836,17.3087116 C23.9543912,18.0180881 25.4346929,18.7525436 26.920397,19.476251 L26.920397,19.4780424 L26.920397,19.4780424 Z M21.5682603,30.2118407 C22.0833044,30.7259595 22.5479246,30.4930834 23.0701721,30.1491433 C25.5769603,28.4993054 28.0855493,26.8530503 30.6337571,25.2694926 C31.2514498,24.8861427 31.0425508,24.4239731 31.076767,23.9403073 C31.1091824,23.5157562 30.8354526,23.3796132 30.536511,23.2345135 C27.5813103,21.7942642 24.6171053,20.3755111 21.6853158,18.8922693 C21.0135974,18.5519119 20.72366,19.0731962 20.2752474,19.2756193 C19.9078733,19.4404239 20.0087211,19.753911 20.0321322,20.0369451 C20.2752474,23.050004 20.5327695,26.0630628 20.7560753,29.0779131 C20.7992958,29.6618948 20.8767325,30.1383951 21.5664594,30.2118407 L21.5682603,30.2118407 Z M16.210721,41.1462708 L16.2377338,41.0907388 L17.1993896,41.5600738 C19.2865788,42.5686065 21.3701664,43.5771393 23.4591565,44.5802981 C23.6482461,44.6716572 23.858946,44.8490013 24.067845,44.6394128 C24.2587355,44.4513205 24.0984595,44.2506888 24.0210228,44.0715533 C22.9405107,41.556491 21.8563969,39.0450115 20.784889,36.5299493 C20.649825,36.2110881 20.4607354,36.1000241 20.1239757,36.1053982 C19.358613,36.1179377 18.5896485,35.9155146 18.1520411,35.3100366 C17.6297936,34.5881206 17.0679273,34.650818 16.3890055,34.9051904 C16.3565901,34.9177299 16.3223739,34.9213126 16.2899585,34.9284781 C13.8768148,35.5500782 11.4672727,36.169887 9.05773068,36.7950698 C8.84883166,36.8488105 8.60031387,36.866724 8.58230534,37.1784198 C8.56789851,37.422044 8.74258131,37.5008636 8.91186154,37.5814746 C11.3430138,38.7709342 13.7777678,39.9586025 16.210721,41.1462708 L16.210721,41.1462708 Z M6.97774483,15.2701498 C7.06238494,15.397336 7.17583872,15.3901706 7.27128396,15.3919619 C10.0391959,15.458242 12.8071078,15.5173567 15.5750197,15.5890109 C15.8487494,15.5961764 15.9622032,15.4707815 16.0774578,15.2486535 C16.5600866,14.3243144 17.2876314,13.6615131 18.324923,13.5199961 C18.9065987,13.4411765 19.0776798,13.1330634 19.2253498,12.6601457 C19.9024708,10.5248507 20.5939985,8.39313846 21.2819246,6.26142617 C21.3539587,6.03750681 21.5214381,5.78492577 21.2747212,5.60220758 C21.0406102,5.42844616 20.8623257,5.6846099 20.6930455,5.79925661 C16.2503398,8.83560311 11.8112358,11.8755323 7.37213175,14.9154615 C7.23346603,15.0121947 7.06058409,15.0731007 6.97594397,15.2701498 L6.97594397,15.2719411 L6.97774483,15.2701498 Z M42.3843265,32.5818032 C42.5013819,32.3883369 42.4383521,32.2145754 42.4311487,32.0479794 L41.946719,23.8167038 C41.7918456,21.1744554 41.6387731,18.532207 41.4784971,15.8917499 C41.467692,15.7161971 41.5181159,15.4779469 41.2804032,15.4134582 C41.1075213,15.3668829 40.9994701,15.5191481 40.9112283,15.6463343 C39.549783,17.618616 38.1955411,19.5998545 36.8268924,21.5685535 C36.6071883,21.8838319 36.6251968,22.1202908 36.8160873,22.4463174 C37.3473391,23.3455775 37.372551,24.3093264 36.9313419,25.2623272 C36.7620617,25.629555 36.7836719,25.8785533 37.0393931,26.1866663 C38.7069835,28.2108973 40.3583662,30.2494591 42.0169523,32.2826469 C42.1105967,32.3972936 42.1844317,32.540602 42.3843265,32.5800118 L42.3843265,32.5818032 L42.3843265,32.5818032 Z" id="形状" fill="#50FA82"></path>
                <path d="M30.5164286,24.1588393 C30.5164286,26.2655591 32.2242624,27.9733929 34.3309821,27.9733929 C36.4377019,27.9733929 38.1455357,26.2655591 38.1455357,24.1588393 C38.1455357,22.0521195 36.4377019,20.3442857 34.3309821,20.3442857 C32.2242624,20.3442857 30.5164286,22.0521195 30.5164286,24.1588393 Z" id="路径" fill="#1D562E"></path>
                <path d="M39.8408929,36.0263393 C39.8408929,38.1330591 41.5487267,39.8408929 43.6554464,39.8408929 C45.7621662,39.8408929 47.47,38.1330591 47.47,36.0263393 C47.47,33.9196195 45.7621662,32.2117857 43.6554464,32.2117857 C41.5487267,32.2117857 39.8408929,33.9196195 39.8408929,36.0263393 L39.8408929,36.0263393 Z" id="路径" fill="#1D562E"></path>
                <path d="M18.8608482,35.9391253 C20.0410752,36.6205297 21.4951748,36.6205297 22.6754018,35.9391253 C23.8556288,35.2577209 24.5826786,33.9984337 24.5826786,32.635625 C24.5826786,31.2728163 23.8556288,30.0135291 22.6754018,29.3321247 C21.4951748,28.6507203 20.0410752,28.6507203 18.8608482,29.3321247 C17.6806212,30.0135291 16.9535714,31.2728163 16.9535714,32.635625 C16.9535714,33.9984337 17.6806212,35.2577209 18.8608482,35.9391253 Z" id="路径" fill="#1D562E"></path>
                <path d="M0,16.5297321 C0,17.8925409 0.727049779,19.1518281 1.90727677,19.8332324 C3.08750376,20.5146368 4.54160338,20.5146368 5.72183037,19.8332324 C6.90205736,19.1518281 7.62910714,17.8925409 7.62910714,16.5297321 C7.62910714,15.1669234 6.90205736,13.9076362 5.72183037,13.2262318 C4.54160338,12.5448275 3.08750376,12.5448275 1.90727677,13.2262318 C0.727049779,13.9076362 0,15.1669234 0,16.5297321 Z" id="路径" fill="#1D562E"></path>
                <path d="M15.2582143,16.5297321 C15.2582143,17.8925409 15.985264,19.1518281 17.165491,19.8332324 C18.345718,20.5146368 19.7998177,20.5146368 20.9800447,19.8332324 C22.1602717,19.1518281 22.8873214,17.8925409 22.8873214,16.5297321 C22.8873214,15.1669234 22.1602717,13.9076362 20.9800447,13.2262318 C19.7998177,12.5448275 18.345718,12.5448275 17.165491,13.2262318 C15.985264,13.9076362 15.2582143,15.1669234 15.2582143,16.5297321 L15.2582143,16.5297321 Z" id="路径" fill="#2F904C"></path>
            </g>
        </g>
    </g>
</svg>