<?xml version="1.0" encoding="UTF-8"?>
<svg width="64px" height="67px" viewBox="0 0 64 67" version="1.1" xmlns="http://www.w3.org/2000/svg" xmlns:xlink="http://www.w3.org/1999/xlink">
    <title>Consensus</title>
    <g id="页面-1" stroke="none" stroke-width="1" fill="none" fill-rule="evenodd">
        <g id="Consensus" fill-rule="nonzero">
            <path d="M62.9464217,48.4406169 L62.0272809,50.3100532 C60.3305902,51.9299113 58.4851091,52.2370844 56.483638,51.0035925 C56.1188615,50.7756124 55.8836767,50.9843941 55.6196937,51.1595788 C50.5272217,54.5072857 45.4395495,57.8645917 40.3374781,61.2002996 C39.8815075,61.4978735 39.7519159,61.8074464 39.8215114,62.3401997 C39.9919004,63.6552846 39.5455291,64.8119833 38.6383876,65.7527009 C37.5584572,66.8758026 36.209744,67.1637774 34.7290394,66.9189988 L33.1379419,66.1366673 C32.2499991,65.2823421 31.6524376,64.2648312 31.6788359,62.9929426 C31.693235,62.3545985 31.4484507,62.0474254 30.9132852,61.7930477 C28.6550307,60.7227414 26.4111752,59.618838 24.1625201,58.5197343 C20.080383,56.5255089 15.9958462,54.5216844 11.9137091,52.5250592 C11.5705312,52.3570739 11.2465521,52.1266941 10.8481777,52.4698641 C9.77544685,53.3937832 8.52992708,53.6217632 7.18361381,53.3937832 L5.5925163,52.6138515 C5.42452713,52.4290676 5.24933841,52.2466836 5.08854877,52.0571002 C4.30565361,51.1274536 3.96888651,49.9017255 4.16690113,48.7025878 C4.36491575,47.5034501 5.07787116,46.4510556 6.11808245,45.8224462 C6.63644906,45.5128733 6.7180438,45.1913014 6.67244674,44.6585481 C6.16367975,38.8804874 5.68130579,33.1001333 5.22533996,27.3176666 C5.1485449,26.3265533 5.02375294,25.5010256 3.92702359,25.2202502 C3.80463147,25.189053 3.69903828,25.0762628 3.59104523,24.9898704 C1.84635762,23.6003921 1.50317973,21.3613881 2.72710089,19.3671628 C3.78303287,17.6393141 6.07008554,17.034567 7.99236171,18.0136813 C8.546726,18.2992563 8.97629833,18.3640506 9.54746154,17.9656855 C15.4342823,13.8860427 21.337902,9.83519745 27.2487213,5.79155154 C27.6686942,5.50357675 27.795886,5.22760092 27.7382897,4.71644568 C27.4647074,2.28545855 29.1733973,0.200041166 31.5396449,0.0128575573 C33.8866937,-0.171926262 35.8593666,1.65671361 35.8833651,4.09969969 C35.8881647,4.65165135 36.0873519,4.92282761 36.5505221,5.15080764 C42.1421619,7.8817685 47.7338017,10.6271281 53.3158421,13.3820869 C53.798211,13.6172663 54.1605877,13.631665 54.6141585,13.2620974 C55.5572977,12.4941646 56.6660263,12.249386 57.8443504,12.4797659 C59.5113034,12.7846182 60.8097033,14.0992896 61.0937411,15.7698778 C61.3889221,17.548122 60.6545694,19.1895783 59.0514726,20.1134974 C58.5355059,20.4086716 58.3963148,20.7398426 58.4635105,21.2797953 C58.5259065,21.7813514 58.533106,22.287707 58.5595043,22.7964625 C58.9482793,29.4174827 59.3418539,36.0361031 59.7162298,42.6571233 C59.7474278,43.2042754 59.9082174,43.5618441 60.4361834,43.7586269 C60.8585562,43.917013 61.2593304,44.1305943 61.607308,44.442567 C62.7976313,45.5152731 63.1480087,46.8735541 62.9464217,48.4358173 L62.9464217,48.4406169 L62.9464217,48.4406169 Z M11.7193216,47.0247409 C12.0193023,47.1543295 12.2832853,47.0415394 12.5448685,46.9743453 C16.0486428,46.0696245 19.5476174,45.1553046 23.0561913,44.2721819 C23.5289609,44.1521924 23.7305479,43.9338115 23.8121426,43.4514538 C23.9753321,42.4867383 24.4001048,41.5484204 25.2400507,41.0900606 C26.3199811,40.4997123 26.4111752,39.702982 26.197589,38.6950703 C26.1831899,38.6278762 26.1855898,38.5582823 26.1807901,38.4910881 C25.8688102,34.6586237 25.5568303,30.8261593 25.2592494,26.9960947 C25.2208519,26.5065376 25.0912603,26.2233624 24.5776933,26.0553771 C23.4665649,25.6882092 22.689015,24.8938788 22.2402439,23.8043742 C22.0698549,23.384411 21.8370699,23.2164257 21.3786994,23.2068265 C17.8269282,23.1420322 14.2727571,23.0628391 10.7185861,22.9596482 C10.2146186,22.9476492 9.92183742,23.1084352 9.70345149,23.5763942 C9.33789505,24.3586598 8.70701444,24.9861249 7.9227662,25.3474391 C7.5267917,25.5394223 7.39480021,25.7554034 7.43079789,26.1969647 C7.95876388,32.3404267 8.47473064,38.4910881 8.98109802,44.63695 C9.01469586,45.0353151 9.16108643,45.2512962 9.53306247,45.3880842 C10.3130122,45.6712594 11.0041677,46.098422 11.5081352,46.7871617 C11.5729311,46.8783537 11.6593255,46.955147 11.7193216,47.0223411 L11.7193216,47.0247409 Z M37.529659,59.1076828 C38.0744239,59.3716597 38.4703984,59.6836324 39.0583605,59.2948664 C44.1820305,55.8943642 49.3248992,52.5202596 54.4653681,49.1485549 C54.791747,48.9325738 54.9309381,48.7117931 54.8565429,48.2966295 C54.6937908,47.4486843 54.8258904,46.5705811 55.2309187,45.8080474 C55.4325058,45.424081 55.3773093,45.1289069 55.1133263,44.8049353 C52.8386028,42.0130026 50.5715403,39.2148371 48.3121644,36.4104703 C48.0625805,36.1032972 47.8201961,36.0217044 47.4290213,36.1320947 C46.2990547,36.481819 45.0713305,36.2981063 44.0932362,35.6329384 C43.7212602,35.3857601 43.459677,35.4217569 43.1092996,35.6521367 C39.485533,38.0231291 35.8569668,40.3821225 32.2236008,42.7387162 C31.9188204,42.935499 31.7892288,43.1418809 31.8492249,43.5306468 C32.0532118,44.8337327 31.7292327,46.0096298 30.8268908,46.9911438 C30.5509086,47.2887178 30.4885126,47.5358961 30.6493022,47.9102633 C32.1228073,51.3179649 33.5795135,54.7280663 35.0338198,58.1405675 C35.1946094,58.5173345 35.4081957,58.728516 35.8497672,58.7093177 C36.473727,58.68292 37.0688887,58.8341068 37.5272592,59.1076828 L37.529659,59.1076828 Z M36.7449096,26.0937737 C38.7439808,27.0776876 40.7478517,28.0496025 42.7397234,29.0455153 C43.1572965,29.254297 43.4716762,29.2470976 43.8508518,28.9255258 C44.7627931,28.1647924 45.8331241,27.8624189 46.9946493,28.0472027 C47.4938171,28.1263957 47.7961977,27.9848081 48.0841791,27.5624451 C49.8072681,25.0186679 51.5495559,22.4892894 53.2990432,19.9671102 C53.6422211,19.4727535 53.8486078,19.0311922 53.4094361,18.4840401 C53.1694515,18.1840664 52.991863,17.7689027 53.03746,17.3921357 C53.2078491,15.9690603 52.3511043,15.4123091 51.2327763,15.0235431 C50.9351955,14.9179524 50.6592132,14.7499671 50.3736316,14.6083795 C45.4371496,12.1845917 40.4958679,9.76560354 35.5665855,7.32741704 C35.0602181,7.0778389 34.6714431,7.0298431 34.2130727,7.44740654 C33.7599136,7.88301969 33.1694959,8.14768354 32.5427802,8.19614097 C31.7964283,8.22973803 31.5564438,8.65690063 31.3572566,9.28564557 C30.4634365,12.1513557 29.5458641,15.0096037 28.6046339,17.8600947 C28.4318451,18.3880485 28.4414444,18.7504168 28.8686169,19.1415825 C29.7157624,19.9167146 30.140535,20.9318257 30.1045373,22.093324 C30.0853385,22.6812726 30.3181236,22.9548486 30.8028923,23.1876282 C32.7923642,24.137945 34.7650371,25.1218588 36.7449096,26.0913739 L36.7449096,26.0937737 L36.7449096,26.0937737 Z M29.612569,40.4733146 C30.2989248,41.1620543 30.9180849,40.8500816 31.6140401,40.3893219 C34.9546249,38.1791155 38.2976095,35.9737086 41.6933908,33.8522943 C42.5165378,33.3387393 42.2381557,32.7195935 42.2837528,32.0716503 C42.32695,31.5029001 41.9621735,31.320516 41.5637991,31.1261331 C37.6256528,29.196702 33.6755073,27.2960685 29.768559,25.3090425 C28.8734166,24.8530824 28.4870415,25.5514212 27.88948,25.8225975 C27.3999115,26.0433781 27.5343029,26.4633414 27.5655009,26.8425082 C27.88948,30.8789547 28.2326579,34.9154013 28.5302387,38.9542476 C28.587835,39.7365791 28.6910284,40.3749232 29.6101692,40.4733146 L29.612569,40.4733146 Z M22.4730289,55.1216319 L22.5090266,55.0472384 L23.790544,55.6759833 C26.5719649,57.027065 29.348586,58.3781467 32.1324067,59.722029 C32.3843904,59.8444183 32.6651724,60.0819975 32.9435544,59.8012221 C33.197938,59.5492441 32.9843518,59.2804677 32.8811584,59.0404887 C31.4412512,55.6711837 29.9965443,52.3066784 28.5686362,48.9373734 C28.3886478,48.5102108 28.1366641,48.3614238 27.687893,48.3686232 C26.6679587,48.3854217 25.6432247,48.1142455 25.0600623,47.3031165 C24.3641071,46.3360012 23.6153553,46.4199938 22.7106136,46.760764 C22.6674164,46.7775625 22.6218193,46.7823621 22.5786221,46.7919613 C19.3628293,47.6246883 16.1518361,48.4550156 12.9408429,49.2925423 C12.6624609,49.364536 12.3312822,49.3885339 12.3072838,49.8060973 C12.288085,50.1324687 12.52087,50.2380595 12.7464555,50.34605 C15.9862468,51.9395105 19.2308378,53.5305712 22.4730289,55.1216319 L22.4730289,55.1216319 Z M10.1690215,20.4566674 C10.2818142,20.6270524 10.4330045,20.6174533 10.5601963,20.6198531 C14.2487587,20.7086453 17.9373211,20.7878384 21.6258835,20.88383 C21.99066,20.8934291 22.1418502,20.7254438 22.2954403,20.4278699 C22.9385989,19.1895783 23.9081365,18.3016561 25.2904474,18.1120727 C26.0655975,18.0064819 26.2935828,17.5937181 26.4903701,16.9601735 C27.392712,14.099624 28.3142526,11.2438741 29.2309936,8.38812416 C29.3269874,8.08815043 29.550173,7.74978006 29.2213942,7.50500149 C28.9094143,7.27222188 28.6718296,7.61539183 28.4462441,7.76897838 C22.5258255,11.8366222 16.6102066,15.9090656 10.6945876,19.981509 C10.5097995,20.1110976 10.2794144,20.1926905 10.1666217,20.4566674 L10.1666217,20.4590671 L10.1690215,20.4566674 Z M57.3523821,43.6482365 C57.508372,43.3890592 57.4243774,43.1562796 57.4147781,42.9330992 L56.7692196,31.9060648 C56.5628329,28.3663747 56.3588461,24.8266847 56.1452598,21.2893944 C56.1308608,21.054215 56.1980564,20.735043 55.8812768,20.6486505 C55.6508917,20.586256 55.506901,20.7902381 55.3893085,20.9606232 C53.5750254,23.6027919 51.7703417,26.2569594 49.9464592,28.8943285 C49.653678,29.3166915 49.6776765,29.6334638 49.9320601,30.0702255 C50.6400145,31.27492 50.6736123,32.566007 50.0856502,33.8426952 C49.8600647,34.3346521 49.8888629,34.6682229 50.2296409,35.0809868 C52.4518978,37.7927493 54.652556,40.5237101 56.8628136,43.2474716 C56.9876056,43.4010582 57.0859992,43.5930414 57.3523821,43.6458368 L57.3523821,43.6482365 L57.3523821,43.6482365 Z" id="形状" fill="#50FA82"></path>
            <path d="M41,32 C41,34.7614237 43.2385763,37 46,37 C48.7614237,37 51,34.7614237 51,32 C51,29.2385763 48.7614237,27 46,27 C43.2385763,27 41,29.2385763 41,32 Z" id="路径" fill="#1D562E"></path>
            <path d="M54,48 C54,50.7614237 56.2385763,53 59,53 C61.7614237,53 64,50.7614237 64,48 C64,45.2385763 61.7614237,43 59,43 C56.2385763,43 54,45.2385763 54,48 L54,48 Z" id="路径" fill="#1D562E"></path>
            <path d="M25.5,48.330127 C27.0470054,49.223291 28.9529946,49.223291 30.5,48.330127 C32.0470054,47.436963 33,45.7863279 33,44 C33,42.2136721 32.0470054,40.563037 30.5,39.669873 C28.9529946,38.776709 27.0470054,38.776709 25.5,39.669873 C23.9529946,40.563037 23,42.2136721 23,44 C23,45.7863279 23.9529946,47.436963 25.5,48.330127 Z" id="路径" fill="#1D562E"></path>
            <path d="M0,22 C0,23.7863279 0.952994584,25.436963 2.5,26.330127 C4.04700537,27.223291 5.95299463,27.223291 7.5,26.330127 C9.04700542,25.436963 10,23.7863279 10,22 C10,20.2136721 9.04700542,18.563037 7.5,17.669873 C5.95299463,16.776709 4.04700537,16.776709 2.5,17.669873 C0.952994584,18.563037 0,20.2136721 0,22 Z" id="路径" fill="#1D562E"></path>
            <path d="M21,22 C21,23.7863279 21.9529946,25.436963 23.5,26.330127 C25.0470054,27.223291 26.9529946,27.223291 28.5,26.330127 C30.0470054,25.436963 31,23.7863279 31,22 C31,20.2136721 30.0470054,18.563037 28.5,17.669873 C26.9529946,16.776709 25.0470054,16.776709 23.5,17.669873 C21.9529946,18.563037 21,20.2136721 21,22 L21,22 Z" id="路径" fill="#2F904C"></path>
        </g>
    </g>
</svg>