<?xml version="1.0" encoding="UTF-8"?>
<svg width="67px" height="67px" viewBox="0 0 67 67" version="1.1" xmlns="http://www.w3.org/2000/svg" xmlns:xlink="http://www.w3.org/1999/xlink">
    <title>TEE mint</title>
    <g id="页面-1" stroke="none" stroke-width="1" fill="none" fill-rule="evenodd">
        <g id="TEE-mint" fill="#50FA82" fill-rule="nonzero">
            <path d="M33.5,0 C52.0015391,0 67,14.9984609 67,33.5 C67,52.0015391 52.0015391,67 33.5,67 C14.9984609,67 0,52.0015391 0,33.5 C0,14.9984609 14.9984609,0 33.5,0 Z M24.6076444,25.8946152 L24.6076444,25.9112176 L12.4896485,25.9112176 C11.7769883,25.9632535 11.2262176,26.5580652 11.2290388,27.272617 C11.2290388,27.9954156 11.7834523,28.5836161 12.4896485,28.6340163 L16.3384479,28.6340163 C16.79205,28.6340163 17.162047,29.0040133 17.162047,29.4576155 L17.162047,40.4330083 C17.165295,41.1927083 17.7803488,41.8077622 18.5400488,41.8110102 C19.2996145,41.8074403 19.9144807,41.1925741 19.9180505,40.4330083 L19.9180505,28.6340163 L24.6076444,28.6340163 L24.6076444,28.6174139 C25.2966453,28.5504112 25.8516408,27.9616179 25.8516408,27.2560146 C25.8503399,26.5492212 25.3114562,25.95948 24.6076444,25.8946152 Z M38.6592305,25.8774199 L38.6758329,25.8934293 L33.5664348,25.8934293 C33.4988392,25.8934293 33.448439,25.8934293 33.3814363,25.9100318 C32.5246322,25.9942298 25.6500399,26.902027 25.6500399,33.8602245 C25.6500399,41.2554217 33.3986316,41.8774199 33.4152341,41.8774199 L38.6592305,41.8774199 C39.4187963,41.87385 40.0336624,41.2589838 40.0372323,40.4994181 C40.0339843,39.7397182 39.4189304,39.1246643 38.6592305,39.1214163 L33.5498324,39.1214163 C32.8270337,39.0372183 28.390034,38.3144196 28.390034,33.8436221 C28.390034,29.2892195 33.0120322,28.6838237 33.6002326,28.6334234 L38.6592305,28.6334234 C39.4187963,28.6298535 40.0336624,28.0149874 40.0372323,27.2554216 C40.0339843,26.4957217 39.4189304,25.8806679 38.6592305,25.8774199 L38.6592305,25.8774199 Z M37.617428,32.4994181 L31.6506329,32.4994181 C30.8909329,32.5026661 30.2758791,33.1177199 30.2726311,33.8774199 C30.2758791,34.6371198 30.8909329,35.2521736 31.6506329,35.2554216 L37.617428,35.2554216 C38.3771279,35.2521736 38.9921817,34.6371198 38.9954298,33.8774199 C38.9921817,33.1177199 38.3771279,32.5026661 37.617428,32.4994181 L37.617428,32.4994181 Z M53.6352164,25.8774199 L53.6518188,25.8934293 L48.5424206,25.8934293 C48.4748249,25.8934293 48.4244247,25.8934293 48.3574221,25.9100318 C47.500618,25.9942298 40.6260257,26.902027 40.6260257,33.8602245 C40.6260257,41.2554217 48.3746175,41.8774199 48.3912199,41.8774199 L53.6352164,41.8774199 C54.3947821,41.87385 55.0096482,41.2589838 55.0132181,40.4994181 C55.0099701,39.7397182 54.3949163,39.1246643 53.6352164,39.1214163 L48.5258182,39.1214163 C47.8030195,39.0372183 43.3660197,38.3144196 43.3660197,33.8436221 C43.3660197,29.2892195 47.988018,28.6838237 48.5762184,28.6334234 L53.6352164,28.6334234 C54.3947821,28.6298535 55.0096482,28.0149874 55.0132181,27.2554216 C55.0099701,26.4957217 54.3949163,25.8806679 53.6352164,25.8774199 L53.6352164,25.8774199 Z M52.5928208,32.4994181 L46.6260257,32.4994181 C45.8663258,32.5026661 45.2512719,33.1177199 45.2480239,33.8774199 C45.2512719,34.6371198 45.8663258,35.2521736 46.6260257,35.2554216 L52.5928208,35.2554216 C53.3525207,35.2521736 53.9675746,34.6371198 53.9708226,33.8774199 C53.9675746,33.1177199 53.3525207,32.5026661 52.5928208,32.4994181 L52.5928208,32.4994181 Z" id="形状"></path>
        </g>
    </g>
</svg>