<?xml version="1.0" encoding="UTF-8"?>
<svg width="150px" height="168px" viewBox="0 0 150 168" version="1.1" xmlns="http://www.w3.org/2000/svg" xmlns:xlink="http://www.w3.org/1999/xlink">
    <title>容器服务</title>
    <g id="页面-1" stroke="none" stroke-width="1" fill="none" fill-rule="evenodd">
        <g id="容器服务" transform="translate(0.416667, 0.562500)" fill="#50FA82" fill-rule="nonzero">
            <polygon id="路径" fill-opacity="0.33" points="107.916667 102.604167 107.916667 64.2708333 74.5833334 44.6875 41.25 64.2708333 41.25 102.604167 74.5833334 122.1875"></polygon>
            <path d="M74.5833334,29.6875 L102.5,13.4375 L82.9166668,2.18749995 C77.5000002,-0.72916665 71.25,-0.72916665 65.8333334,2.18749995 L46.25,13.4375 L74.5833334,29.6875 L74.5833334,29.6875 Z M115.416667,20.9375 L87.5,37.1875 L114.583333,53.0208333 L120.833333,56.7708333 L120.833333,95.5208333 L148.75,79.2708333 L148.75,50.5208333 C148.75,44.2708333 145.416667,38.8541667 140,35.5208333 L115.416667,20.9375 Z M50.8333334,43.4375 L61.6666668,37.1875 L33.75,20.9375 L8.75,35.5208333 C3.3333334,38.4375 0,44.2708333 0,50.5208333 L0,79.2708333 L27.9166668,95.5208333 L27.9166668,56.7708333 L34.1666668,53.0208333 L50.8333334,43.4375 L50.8333334,43.4375 Z M74.5833334,137.1875 L68.3333334,133.4375 L44.5833334,119.6875 L41.25,117.604167 L41.25,150.104167 L66.25,164.6875 C71.6666666,167.604167 77.9166666,167.604167 83.3333334,164.6875 L108.333333,150.104167 L108.333333,117.604167 L80.8333334,133.4375 L74.5833334,137.1875 Z M8.75,131.354167 L28.3333334,142.604167 L28.3333334,110.104167 L0.416666797,93.8541666 L0.416666797,116.354167 C1.95312504e-07,122.604167 3.3333334,128.4375 8.75,131.354167 Z M120.833333,142.604167 L140.416667,131.354167 C145.833333,128.4375 149.166667,122.604167 149.166667,116.354167 L149.166667,93.8541666 L121.25,110.104167 L121.25,142.604167 L120.833333,142.604167 Z" id="形状"></path>
        </g>
    </g>
</svg>