<?xml version="1.0" encoding="UTF-8"?>
<svg width="67px" height="67px" viewBox="0 0 67 67" version="1.1" xmlns="http://www.w3.org/2000/svg" xmlns:xlink="http://www.w3.org/1999/xlink">
    <title>TEE mint</title>
    <g id="页面-1" stroke="none" stroke-width="1" fill="none" fill-rule="evenodd">
        <g id="TEE-mint" fill-rule="nonzero">
            <path d="M33.5,67 C52.0015391,67 67,52.0015391 67,33.5 C67,14.9984609 52.0015391,0 33.5,0 C14.9984609,0 0,14.9984609 0,33.5 C0,52.0015391 14.9984609,67 33.5,67 Z" id="椭圆形" fill-opacity="0.15" fill="#7E7E7E"></path>
            <path d="M38.6164976,25 C39.4116621,25.003654 40.0554281,25.6955896 40.0588277,26.550252 C40.0550912,27.4047634 39.4115217,28.0964878 38.6164976,28.100504 L38.6164976,28.100504 L33.321334,28.100504 C32.705675,28.1572043 27.8679112,28.8382746 27.8679112,33.9619775 C27.8679112,38.9916247 32.5120404,39.8047732 33.268581,39.899496 L33.268581,39.899496 L38.6164976,39.899496 C39.4116621,39.90315 40.0554281,40.5950856 40.0588277,41.449748 C40.0550912,42.3042595 39.4115217,42.9959839 38.6164976,43 L38.6164976,43 L33.1276994,43 C33.1103218,43 25.0000079,42.3002521 25.0000079,33.9806552 C25.0000079,26.1526831 32.1955221,25.1314112 33.0923237,25.0366884 C33.1624543,25.0180107 33.2152073,25.0180107 33.2859584,25.0180107 L38.6338751,25.0180107 Z M23.6388317,25 C24.4089399,25.0733562 24.9985844,25.7403001 25.0000118,26.5396193 C25.0000118,27.3375926 24.3927338,28.0034645 23.6388317,28.0792385 L23.6388317,28.0792385 L23.6388317,28.0980143 L18.5074957,28.0980143 L18.5074957,41.4416048 C18.5035896,42.3006049 17.8308054,42.9959628 16.9996914,43 C16.1684306,42.9963268 15.495441,42.3007566 15.4918871,41.4416048 L15.4918871,41.4416048 L15.4918871,29.0294304 C15.4918871,28.5164474 15.0870377,28.0980143 14.590708,28.0980143 L14.590708,28.0980143 L10.3793662,28.0980143 C9.60664896,28.0410163 9.00001181,27.3758149 9.00001181,26.5583951 C8.99692486,25.7503017 9.59957609,25.0776237 10.3793662,25.0187758 L10.3793662,25.0187758 L23.6388317,25.0187758 Z M55.5576699,25 C56.3528344,25.003654 56.9966004,25.6955896 57,26.550252 C56.9962635,27.4047634 56.352694,28.0964878 55.5576699,28.100504 L55.5576699,28.100504 L50.2625063,28.100504 C49.6468472,28.1572043 44.8090835,28.8382746 44.8090835,33.9619775 C44.8090835,38.9916247 49.4532126,39.8047732 50.2097532,39.899496 L50.2097532,39.899496 L55.5576699,39.899496 C56.3528344,39.90315 56.9966004,40.5950856 57,41.449748 C56.9962635,42.3042595 56.352694,42.9959839 55.5576699,43 L55.5576699,43 L50.0688716,43 C50.0514941,43 41.9411802,42.3002521 41.9411802,33.9806552 C41.9411802,26.1526831 49.1366944,25.1314112 50.033496,25.0366884 C50.1036265,25.0180107 50.1563795,25.0180107 50.2271307,25.0180107 L55.5750474,25.0180107 Z M37.6308093,32.5789474 C38.4505135,32.5822968 39.1141469,33.2165659 39.1176515,34 C39.1141469,34.7834341 38.4505135,35.4177032 37.6308093,35.4210526 L37.6308093,35.4210526 L31.1927313,35.4210526 C30.373027,35.4177032 29.7093936,34.7834341 29.7058891,34 C29.7093936,33.2165659 30.373027,32.5822968 31.1927313,32.5789474 L31.1927313,32.5789474 Z M53.6308053,32.5789474 C54.4505096,32.5822968 55.114143,33.2165659 55.1176475,34 C55.114143,34.7834341 54.4505096,35.4177032 53.6308053,35.4210526 L53.6308053,35.4210526 L47.1927273,35.4210526 C46.3730231,35.4177032 45.7093897,34.7834341 45.7058851,34 C45.7093897,33.2165659 46.3730231,32.5822968 47.1927273,32.5789474 L47.1927273,32.5789474 Z" id="形状" fill="#50FA82"></path>
        </g>
    </g>
</svg>