<?xml version="1.0" encoding="UTF-8"?>
<svg width="75px" height="75px" viewBox="0 0 75 75" version="1.1" xmlns="http://www.w3.org/2000/svg" xmlns:xlink="http://www.w3.org/1999/xlink">
    <title>TEE mint</title>
    <g id="页面-1" stroke="none" stroke-width="1" fill="none" fill-rule="evenodd">
        <g id="TEE-mint" transform="translate(2.000000, 2.000000)" fill-rule="nonzero">
            <circle id="椭圆形" stroke="#50FA82" stroke-width="3" cx="35.5" cy="35.5" r="35.5"></circle>
            <path d="M41.4675239,26 C42.3123864,26.003857 42.9963879,26.7342334 43,27.6363771 C42.9960299,28.5383614 42.3122372,29.2685149 41.4675239,29.2727542 L41.4675239,29.2727542 L35.8414112,29.2727542 C35.1872734,29.3326045 30.0471481,30.0515121 30.0471481,35.4598651 C30.0471481,40.7689372 34.9815365,41.6272606 35.7853611,41.7272458 L35.7853611,41.7272458 L41.4675239,41.7272458 C42.3123864,41.7311028 42.9963879,42.4614793 43,43.3636229 C42.9960299,44.2656072 42.3122372,44.9957608 41.4675239,45 L41.4675239,45 L35.6356743,45 C35.6172107,45 27,44.2613772 27,35.4795805 C27,27.5866998 33.9759157,26.2496549 35.4311271,26.0585972 L35.5509979,26.0438778 L35.5509979,26.0438778 L35.5980877,26.0387266 C35.6726014,26.0190113 35.7286515,26.0190113 35.8038246,26.0190113 L41.4859875,26.0190113 Z M25.5537499,26 C26.3719901,26.0774316 26.9984876,26.7814279 27,27.6251537 C27,28.4674589 26.3547712,29.1703237 25.5537499,29.2503073 L25.5537499,29.2503073 L25.5537499,29.2701262 L20.1017042,29.2701262 L20.1017042,43.3550273 C20.0975539,44.2617496 19.3827205,44.9957385 18.4996617,45 C17.6164468,44.9961227 16.9013952,44.2619098 16.8976192,43.3550273 L16.8976192,43.3550273 L16.8976192,30.2532877 C16.8976192,29.7118056 16.4674666,29.2701262 15.9401161,29.2701262 L15.9401161,29.2701262 L11.4655644,29.2701262 C10.6445521,29.2099616 10,28.5078046 10,27.6449726 C9.99672012,26.7919852 10.6370372,26.0819361 11.4655644,26.0198189 L11.4655644,26.0198189 L25.5537499,26.0198189 Z M59.4675239,26 C60.3123864,26.003857 60.9963879,26.7342334 61,27.6363771 C60.9960299,28.5383614 60.3122372,29.2685149 59.4675239,29.2727542 L59.4675239,29.2727542 L53.8414112,29.2727542 C53.1872733,29.3326045 48.047148,30.0515121 48.047148,35.4598651 C48.047148,40.7689372 52.9815364,41.6272606 53.785361,41.7272458 L53.785361,41.7272458 L59.4675239,41.7272458 C60.3123864,41.7311028 60.9963879,42.4614793 61,43.3636229 C60.9960299,44.2656072 60.3122372,44.9957608 59.4675239,45 L59.4675239,45 L53.6356742,45 C53.6172107,45 45,44.2613772 45,35.4795805 C45,27.5866998 51.9759157,26.2496549 53.4311271,26.0585972 L53.5509979,26.0438778 L53.5509979,26.0438778 L53.5980877,26.0387266 C53.6726014,26.0190113 53.7286514,26.0190113 53.8038246,26.0190113 L59.4859875,26.0190113 Z M40.4202298,34 C41.2911658,34.0035356 41.9962764,34.6730418 42,35.5 C41.9962764,36.3269582 41.2911658,36.9964644 40.4202298,37 L40.4202298,37 L33.5797702,37 C32.7088342,36.9964644 32.0037236,36.3269582 32,35.5 C32.0037236,34.6730418 32.7088342,34.0035356 33.5797702,34 L33.5797702,34 Z M57.4202298,34 C58.2911658,34.0035356 58.9962764,34.6730418 59,35.5 C58.9962764,36.3269582 58.2911658,36.9964644 57.4202298,37 L57.4202298,37 L50.5797702,37 C49.7088342,36.9964644 49.0037236,36.3269582 49,35.5 C49.0037236,34.6730418 49.7088342,34.0035356 50.5797702,34 L50.5797702,34 Z" id="形状" fill="#50FA82"></path>
        </g>
    </g>
</svg>