<?xml version="1.0" encoding="UTF-8"?>
<svg width="69px" height="69px" viewBox="0 0 69 69" version="1.1" xmlns="http://www.w3.org/2000/svg" xmlns:xlink="http://www.w3.org/1999/xlink">
    <title>vDOT</title>
    <defs>
        <linearGradient x1="50.0001538%" y1="-3.07692308%" x2="50.0001538%" y2="103.076923%" id="linearGradient-1">
            <stop stop-color="#7AEDCF" offset="0%"></stop>
            <stop stop-color="#68CEFA" offset="20.1333%"></stop>
            <stop stop-color="#689CF8" offset="40.3244%"></stop>
            <stop stop-color="#AC57C0" offset="60.2076%"></stop>
            <stop stop-color="#E65659" offset="80.1867%"></stop>
            <stop stop-color="#F2C241" offset="100%"></stop>
        </linearGradient>
        <linearGradient x1="50%" y1="0%" x2="50%" y2="100%" id="linearGradient-2">
            <stop stop-color="#7AEDCF" offset="0%"></stop>
            <stop stop-color="#68CEFA" offset="20.1333%"></stop>
            <stop stop-color="#689CF8" offset="40.3244%"></stop>
            <stop stop-color="#AC57C0" offset="60.2076%"></stop>
            <stop stop-color="#E65659" offset="80.1867%"></stop>
            <stop stop-color="#F2C241" offset="100%"></stop>
        </linearGradient>
        <rect id="path-3" x="0" y="0" width="24" height="24"></rect>
    </defs>
    <g id="页面-1" stroke="none" stroke-width="1" fill="none" fill-rule="evenodd">
        <g id="vDOT" transform="translate(2.000000, 2.000000)">
            <path d="M41,15.0000657 C41,17.7614609 37.4182501,20 33.0000612,20 C28.5817499,20 25,17.7614609 25,15.0000657 C25,12.2386706 28.5817499,10 33.0000612,10 C37.4182501,10 41,12.2386706 41,15.0000657 Z M41,51 C41,53.7614315 37.4182501,56 33.0000612,56 C28.5817499,56 25,53.7614315 25,51 C25,48.2385685 28.5817499,46 33.0000612,46 C37.4182501,46 41,48.2385685 41,51 Z M21.2594852,25.8881852 C23.593355,21.9628922 23.5781043,17.7115269 21.2257528,16.3925531 C18.8732719,15.0735794 15.0743036,17.1863974 12.740563,21.1116904 C10.4066932,25.0369833 10.4218146,29.2883486 12.7742955,30.6074479 C15.1267763,31.9264216 18.9257446,29.8136037 21.2594852,25.8881852 Z M52.2270883,35.3920687 C54.5788285,36.7102536 54.5926623,40.9611553 52.2581173,44.8868411 C49.9235723,48.8124013 46.1245873,50.9261163 43.7728471,49.6079313 C41.4212361,48.2897464 41.4072731,44.0387192 43.7419474,40.1131589 C46.0764924,36.1875987 49.8754773,34.0738837 52.2270883,35.3920687 Z M21.225681,49.6074479 C23.5781713,48.2883486 23.5932928,44.0369833 21.2595428,40.1116904 C18.9257928,36.1863974 15.1268093,34.0735794 12.774319,35.3925531 C10.4218287,36.7115269 10.4067072,40.9628922 12.7404572,44.8881852 C15.0743364,48.8136037 18.87332,50.9264216 21.225681,49.6074479 Z M52.2581267,21.1132417 C54.5926591,25.0388189 54.5788254,29.289739 52.2270978,30.6079296 C49.8754995,31.9261203 46.0765351,29.8123962 43.7418733,25.8868189 C41.4073409,21.9612417 41.4211746,17.7103216 43.7729022,16.392131 C46.1245005,15.0738148 49.9234649,17.1875389 52.2581267,21.1132417 Z" id="形状" fill="#E6007A"></path>
            <circle id="椭圆形" stroke="url(#linearGradient-1)" stroke-width="4" cx="32.5" cy="32.5" r="32.5"></circle>
            <path d="M65,55 C65,60.5228 60.5228,65 55,65 C49.4772,65 45,60.5228 45,55 C45,49.4772 49.4772,45 55,45 C60.5228,45 65,49.4772 65,55 Z" id="路径" fill="url(#linearGradient-2)" fill-rule="nonzero"></path>
            <g id="Clipped" transform="translate(43.000000, 43.000000)">
                <mask id="mask-4" fill="white">
                    <use xlink:href="#path-3"></use>
                </mask>
                <g id="矩形"></g>
                <path d="M20,12 C20,16.4183 16.4183,20 12,20 L12,24 C18.6274,24 24,18.6274 24,12 L20,12 Z M12,20 C7.5817,20 4,16.4183 4,12 L0,12 C0,18.6274 5.3726,24 12,24 L12,20 Z M4,12 C4,7.5817 7.5817,4 12,4 L12,0 C5.3726,0 0,5.3726 0,12 L4,12 Z M12,4 C16.4183,4 20,7.5817 20,12 L24,12 C24,5.3726 18.6274,0 12,0 L12,4 Z" id="形状" fill-opacity="0.5" fill="#FFFFFF" fill-rule="nonzero" mask="url(#mask-4)"></path>
            </g>
            <path d="M54.5839,59.376 L50.5182,53.2774 C50.2966,52.9451 50.5348,52.5 50.9342,52.5 L52.742,52.5 C52.9038,52.5 53.0556,52.5783 53.1494,52.7102 L54.5925,54.7395 C54.7918,55.0198 55.2081,55.0198 55.4074,54.7395 L56.8504,52.7102 C56.9442,52.5783 57.0961,52.5 57.2579,52.5 L59.0657,52.5 C59.465,52.5 59.7032,52.9451 59.4817,53.2773 L55.416,59.376 C55.218,59.6728 54.7818,59.6728 54.5839,59.376 Z" id="路径" fill="#FFFFFF" fill-rule="nonzero"></path>
        </g>
    </g>
</svg>