<?xml version="1.0" encoding="UTF-8"?>
<svg width="67px" height="67px" viewBox="0 0 67 67" version="1.1" xmlns="http://www.w3.org/2000/svg" xmlns:xlink="http://www.w3.org/1999/xlink">
    <title>wAPP</title>
    <g id="页面-1" stroke="none" stroke-width="1" fill="none" fill-rule="evenodd">
        <g id="wAPP" fill-rule="nonzero">
            <path d="M33.5,67 C52.0015391,67 67,52.0015391 67,33.5 C67,14.9984609 52.0015391,0 33.5,0 C14.9984609,0 0,14.9984609 0,33.5 C0,52.0015391 14.9984609,67 33.5,67 Z" id="椭圆形" fill-opacity="0.15" fill="#7E7E7E"></path>
            <g id="APP" transform="translate(13.000000, 24.000000)" fill="#50FA82" stroke="#50FA82">
                <path d="M2.156,2.156 L2.156,8.624 L8.624,8.624 L8.624,4.312 L10.78,4.312 L10.78,19.404 L8.624,19.404 L8.624,10.78 L2.156,10.78 L2.156,19.404 L0,19.404 L0,2.156 L2.156,2.156 Z M6.468,4.312 L6.468,2.156 L8.624,2.156 L8.624,4.312 L6.468,4.312 Z M6.468,0 L6.468,2.156 L2.156,2.156 L2.156,0 L6.468,0 Z" id="形状"></path>
                <path d="M21.56,0 L21.56,2.156 L17.248,2.156 L17.248,10.78 L23.716,10.78 L23.716,12.936 L17.248,12.936 L17.248,19.404 L15.092,19.404 L15.092,0 L21.56,0 Z M23.716,2.156 L23.716,4.312 L21.56,4.312 L21.56,2.156 L23.716,2.156 Z M25.872,4.312 L25.872,10.78 L23.716,10.78 L23.716,4.312 L25.872,4.312 Z" id="形状"></path>
                <path d="M36.652,0 L36.652,2.156 L32.34,2.156 L32.34,10.78 L38.808,10.78 L38.808,12.936 L32.34,12.936 L32.34,19.404 L30.184,19.404 L30.184,0 L36.652,0 Z M38.808,2.156 L38.808,4.312 L36.652,4.312 L36.652,2.156 L38.808,2.156 Z M40.964,4.312 L40.964,10.78 L38.808,10.78 L38.808,4.312 L40.964,4.312 Z" id="形状"></path>
            </g>
        </g>
    </g>
</svg>