<?xml version="1.0" encoding="UTF-8"?>
<svg width="67px" height="67px" viewBox="0 0 67 67" version="1.1" xmlns="http://www.w3.org/2000/svg" xmlns:xlink="http://www.w3.org/1999/xlink">
    <title>undefined</title>
    <g id="页面-1" stroke="none" stroke-width="1" fill="none" fill-rule="evenodd">
        <g id="undefined" fill-rule="nonzero">
            <path d="M33.5,67 C52.0015391,67 67,52.0015391 67,33.5 C67,14.9984609 52.0015391,0 33.5,0 C14.9984609,0 0,14.9984609 0,33.5 C0,52.0015391 14.9984609,67 33.5,67 Z" id="椭圆形" fill-opacity="0.15" fill="#7E7E7E"></path>
            <g id="编组" transform="translate(14.000000, 23.000000)" fill="#50FA82">
                <path d="M8.83018869,0 L12.509434,0 L12.509434,3.62068964 L8.83018869,3.62068964 L8.83018869,0 Z M13.245283,0 L16.9245283,0 L16.9245283,3.62068964 L13.245283,3.62068964 L13.245283,0 Z M22.0754717,0 L25.754717,0 L25.754717,3.62068964 L22.0754717,3.62068964 L22.0754717,0 Z M26.490566,0 L30.1698113,0 L30.1698113,3.62068964 L26.490566,3.62068964 L26.490566,0 Z M17.6603774,4.34482758 L21.3396226,4.34482758 L21.3396226,7.96551722 L17.6603774,7.96551722 L17.6603774,4.34482758 Z M8.83018869,8.68965516 L12.509434,8.68965516 L12.509434,12.3103448 L8.83018869,12.3103448 L8.83018869,8.68965516 Z M13.245283,8.68965516 L16.9245283,8.68965516 L16.9245283,12.3103448 L13.245283,12.3103448 L13.245283,8.68965516 Z M17.6603774,8.68965516 L21.3396226,8.68965516 L21.3396226,12.3103448 L17.6603774,12.3103448 L17.6603774,8.68965516 Z M22.0754717,8.68965516 L25.754717,8.68965516 L25.754717,12.3103448 L22.0754717,12.3103448 L22.0754717,8.68965516 Z M26.490566,8.68965516 L30.1698113,8.68965516 L30.1698113,12.3103448 L26.490566,12.3103448 L26.490566,8.68965516 Z M17.6603774,13.0344828 L21.3396226,13.0344828 L21.3396226,16.6551724 L17.6603774,16.6551724 L17.6603774,13.0344828 Z M8.83018869,17.3793104 L12.509434,17.3793104 L12.509434,21 L8.83018869,21 L8.83018869,17.3793104 Z M13.245283,17.3793104 L16.9245283,17.3793104 L16.9245283,21 L13.245283,21 L13.245283,17.3793104 Z M22.0754717,17.3793104 L25.754717,17.3793104 L25.754717,21 L22.0754717,21 L22.0754717,17.3793104 Z M26.490566,17.3793104 L30.1698113,17.3793104 L30.1698113,21 L26.490566,21 L26.490566,17.3793104 Z M0,16.6551724 L0,13.0344828 L3.6792453,13.0344828 L3.6792453,16.6551724 L0,16.6551724 Z M0,12.3103448 L0,8.68965516 L3.6792453,8.68965516 L3.6792453,12.3103448 L0,12.3103448 Z M0,7.96551722 L0,4.34482758 L3.6792453,4.34482758 L3.6792453,7.96551722 L0,7.96551722 Z M4.41509433,21 L4.41509433,17.3793104 L8.09433963,17.3793104 L8.09433963,21 L4.41509433,21 Z M4.41509433,3.62068964 L4.41509433,0 L8.09433963,0 L8.09433963,3.62068964 L4.41509433,3.62068964 Z M35.3207547,16.6551724 L35.3207547,13.0344828 L39,13.0344828 L39,16.6551724 L35.3207547,16.6551724 Z M35.3207547,12.3103448 L35.3207547,8.68965516 L39,8.68965516 L39,12.3103448 L35.3207547,12.3103448 Z M35.3207547,7.96551722 L35.3207547,4.34482758 L39,4.34482758 L39,7.96551722 L35.3207547,7.96551722 Z M30.9056604,21 L30.9056604,17.3793104 L34.5849057,17.3793104 L34.5849057,21 L30.9056604,21 Z M30.9056604,3.62068964 L30.9056604,0 L34.5849057,0 L34.5849057,3.62068964 L30.9056604,3.62068964 Z" id="形状"></path>
            </g>
        </g>
    </g>
</svg>