<?xml version="1.0" encoding="UTF-8"?>
<svg width="68px" height="68px" viewBox="0 0 68 68" version="1.1" xmlns="http://www.w3.org/2000/svg" xmlns:xlink="http://www.w3.org/1999/xlink">
    <title>wDOT</title>
    <defs>
        <linearGradient x1="50%" y1="0%" x2="50%" y2="100%" id="linearGradient-1">
            <stop stop-color="#82BF00" offset="0%"></stop>
            <stop stop-color="#00922F" offset="71.5758458%"></stop>
            <stop stop-color="#059C43" offset="100%"></stop>
        </linearGradient>
        <path d="M33.6635249,24 C39.5527764,24 44.3270498,28.7742734 44.3270498,34.6635249 C44.3270498,40.5527764 39.5527764,45.3270498 33.6635249,45.3270498 C27.7742734,45.3270498 23,40.5527764 23,34.6635249 C23,28.7742734 27.7742734,24 33.6635249,24 Z M37.6154435,30.8796935 C37.5647605,31.1168553 37.3829532,31.7809119 37.0700215,32.8718631 C36.7570898,33.9628144 36.3690107,35.2636477 35.9057842,36.7743632 L35.9057842,36.7743632 L35.8651876,36.7743632 C35.4700605,35.4716068 35.110518,34.2857295 34.7865601,33.2167314 C34.4626022,32.1477333 34.2744047,31.5075529 34.2219675,31.2961902 L34.2219675,31.2961902 L32.5756462,31.2961902 C32.5331076,31.4349204 32.3441739,32.0555131 32.0088452,33.1579685 C31.6735166,34.2604239 31.2880217,35.4658888 30.8523607,36.7743632 L30.8523607,36.7743632 L30.8117642,36.7743632 C30.3613806,35.24874 29.9758701,33.9260046 29.6552326,32.8061569 C29.3345951,31.6863092 29.1541347,31.0441547 29.1138515,30.8796935 L29.1138515,30.8796935 L27.1278161,31.51807 C27.8817966,33.8007867 28.4908387,35.702455 28.9549423,37.2230748 C29.419046,38.7436947 29.6809814,39.6104348 29.7407485,39.823295 L29.7407485,39.823295 L31.4932598,39.823295 C31.5564726,39.6108432 31.7659864,38.9606563 32.1218013,37.8727342 C32.4776162,36.7848122 32.8801203,35.5856609 33.3293135,34.2752805 L33.3293135,34.2752805 L33.36991,34.2752805 C33.8548131,35.74808 34.2512559,36.9854535 34.5592383,37.987401 C34.8672207,38.9893485 35.0520038,39.6013132 35.1135878,39.823295 L35.1135878,39.823295 L36.855856,39.823295 C36.9653037,39.4640125 37.2779535,38.4517352 37.7938052,36.7864629 C38.3096569,35.1211906 38.8821433,33.3489607 39.5112644,31.4697731 L39.5112644,31.4697731 Z" id="path-2"></path>
    </defs>
    <g id="页面-1" stroke="none" stroke-width="1" fill="none" fill-rule="evenodd">
        <g id="wDOT">
            <circle id="椭圆形" fill-opacity="0.15" fill="#7E7E7E" cx="33.75" cy="33.75" r="33.75"></circle>
            <path d="M43.6883055,15.8158488 C43.6883055,18.4755061 39.5747912,20.6315709 34.5006561,20.6315709 C29.4263804,20.6315709 25.3128661,18.4755061 25.3128661,15.8158488 C25.3128661,13.1561914 29.4263804,11 34.5006561,11 C39.5747912,11 43.6883055,13.1561914 43.6883055,15.8158488 Z M43.6883055,53.6540996 C43.6883055,56.3137919 39.5747912,58.4698851 34.5006561,58.4698851 C29.4263804,58.4698851 25.3128661,56.3137919 25.3128661,53.6540996 C25.3128661,50.9944073 29.4263804,48.8383142 34.5006561,48.8383142 C39.5747912,48.8383142 43.6883055,50.9944073 43.6883055,53.6540996 Z M19.8188827,28.3106049 C22.0525225,24.169867 22.0379268,19.6851598 19.786599,18.2937924 C17.5351475,16.902425 13.8993291,19.1312079 11.665813,23.2719458 C9.43217327,27.4126837 9.4466453,31.8973909 11.6980968,33.2888906 C13.9495483,34.680258 17.5853666,32.4514752 19.8188827,28.3106049 Z M55.7731125,36.1804844 C58.0238553,37.5710197 58.0370949,42.0552378 55.802809,46.1963901 C53.568523,50.33741 49.9326888,52.567139 47.6819461,51.1766037 C45.4313271,49.7860684 45.4179637,45.3017179 47.6523734,41.160698 C49.8866593,37.0196782 53.5224936,34.7899491 55.7731125,36.1804844 Z M19.7865303,51.1760937 C22.0379908,49.7845939 22.0524629,45.2998868 19.8189379,41.1591489 C17.5854128,37.0184109 13.9495799,34.7896281 11.6981193,36.1809955 C9.44665878,37.5723629 9.4321867,42.05707 11.6657117,46.197808 C13.8993605,50.3386783 17.5351934,52.5674611 19.7865303,51.1760937 Z M55.802818,23.2735823 C58.0370919,27.4146201 58.0238523,31.8988575 55.7731217,33.2893988 C53.5225148,34.6799401 49.8867002,32.4502015 47.6523025,28.3091637 C45.4180286,24.1681259 45.4312682,19.6838884 47.6819988,18.2933471 C49.9326057,16.9026734 53.5684203,19.1324121 55.802818,23.2735823 Z" id="形状" fill="#E6007A" fill-rule="nonzero"></path>
            <mask id="mask-3" fill="white">
                <use xlink:href="#path-2"></use>
            </mask>
            <use id="形状结合" fill="url(#linearGradient-1)" fill-rule="nonzero" xlink:href="#path-2"></use>
        </g>
    </g>
</svg>