<?xml version="1.0" encoding="UTF-8"?>
<svg width="67px" height="67px" viewBox="0 0 67 67" version="1.1" xmlns="http://www.w3.org/2000/svg" xmlns:xlink="http://www.w3.org/1999/xlink">
    <title>wPAS</title>
    <defs>
        <linearGradient x1="50%" y1="0%" x2="50%" y2="100%" id="linearGradient-1">
            <stop stop-color="#82BF00" offset="0%"></stop>
            <stop stop-color="#00922F" offset="71.5758458%"></stop>
            <stop stop-color="#059C43" offset="100%"></stop>
        </linearGradient>
    </defs>
    <g id="页面-1" stroke="none" stroke-width="1" fill="none" fill-rule="evenodd">
        <g id="wPAS">
            <path d="M33.5,67 C52.0015391,67 67,52.0015391 67,33.5 C67,14.9984609 52.0015391,0 33.5,0 C14.9984609,0 0,14.9984609 0,33.5 C0,52.0015391 14.9984609,67 33.5,67 Z" id="椭圆形" fill-opacity="0.15" fill="#7E7E7E" fill-rule="nonzero"></path>
            <path d="M33,27 C36.86596,27 40,30.13404 40,34 C40,37.86596 36.86596,41 33,41 C29.13404,41 26,37.86596 26,34 C26,30.13404 29.13404,27 33,27 Z M35.775255,31 C35.7425125,31.1591049 35.6250607,31.604601 35.4228995,32.3364882 C35.2207382,33.0683754 34.9700299,33.9410663 34.6707746,34.954561 L34.6707746,34.954561 L34.6445483,34.954561 C34.3892869,34.08058 34.1570139,33.2850097 33.9477295,32.5678502 C33.738445,31.8506907 33.616865,31.4212125 33.5829893,31.2794155 L33.5829893,31.2794155 L32.5194269,31.2794155 C32.4919459,31.3724854 32.3698903,31.7888229 32.1532601,32.5284279 C31.9366298,33.2680329 31.6875911,34.0767439 31.4061438,34.954561 L31.4061438,34.954561 L31.3799174,34.954561 C31.088959,33.9310652 30.8399102,33.0436808 30.6327708,32.2924078 C30.4256314,31.5411348 30.3090497,31.1103322 30.2830257,31 L30.2830257,31 L29,31.4282681 C29.4870892,32.9596758 29.8805448,34.2354493 30.1803667,35.2555885 C30.3516935,35.8385253 30.4803736,36.2782232 30.5664071,36.5746824 L30.6229359,36.7701695 C30.6552909,36.8825893 30.6769843,36.9591995 30.688016,37 L30.688016,37 L31.8201797,37 C31.8610167,36.8574723 31.9963676,36.421281 32.2262324,35.691426 C32.4560972,34.961571 32.7161243,34.1570956 33.0063137,33.2779998 L33.0063137,33.2779998 L33.0325401,33.2779998 C33.3457989,34.2660578 33.6019103,35.0961754 33.8008742,35.7683526 C33.9998381,36.4405297 34.1192124,36.8510789 34.1589971,37 L34.1589971,37 L35.2845435,37 C35.3552493,36.7589679 35.5572284,36.0798607 35.8904808,34.9626784 C36.2237332,33.8454961 36.5935729,32.656559 37,31.3958671 L37,31.3958671 Z" id="形状结合" fill="url(#linearGradient-1)" fill-rule="nonzero"></path>
            <g id="编组" transform="translate(8.000000, 8.000000)" fill="#56F39A">
                <path d="M25.5,47.8125 C37.822875,47.8125 47.8125,37.822875 47.8125,25.5 C47.8125,13.177125 37.822875,3.1875 25.5,3.1875 C13.177125,3.1875 3.1875,13.177125 3.1875,25.5 C3.1875,37.822875 13.177125,47.8125 25.5,47.8125 Z M25.5,51 C39.5832516,51 51,39.5832516 51,25.5 C51,11.4167484 39.5832516,0 25.5,0 C11.4167484,0 0,11.4167484 0,25.5 C0,39.5832516 11.4167484,51 25.5,51 Z" id="形状"></path>
                <path d="M8.9506817,27.0975913 C12.1988529,29.9257108 17.2412475,32.5932988 23.3264628,34.2519913 C29.411678,35.9106838 35.0896151,36.1652649 39.2927103,35.3682008 C43.7462992,34.5235924 45.4402152,32.7850736 45.7719289,31.5256723 C46.1037212,30.266271 45.4911937,27.8991302 42.0493199,24.9023288 C38.8011487,22.0742093 33.7587541,19.4067012 27.6735388,17.7480087 C21.5884021,16.0893162 15.9103865,15.8347351 11.7073698,16.6317992 C7.25369449,17.4764076 5.55980998,19.2149264 5.22807267,20.4743277 C4.89634321,21.733729 5.50881576,24.1008698 8.9506817,27.0975913 Z M2.19316286,19.647059 C0.543619438,25.9096261 9.64120871,33.830646 22.5132417,37.3393264 C35.3852747,40.847927 47.1573031,38.6154282 48.8068387,32.352941 C50.4563743,26.0903739 41.3587929,18.169354 28.4867599,14.6606736 C15.6147269,11.152073 3.84270629,13.3845718 2.19316286,19.647059 Z" id="形状"></path>
                <path d="M36.6819527,20.6819527 C34.9246314,22.4393491 32.0753873,22.4393491 30.317991,20.6819527 C28.5606697,18.9246314 28.5606697,16.0753873 30.317991,14.317991 C32.0753873,12.5606697 34.9246314,12.5606697 36.6819527,14.317991 C38.4393491,16.0753873 38.4393491,18.9246314 36.6819527,20.6819527 Z" id="路径" fill-rule="nonzero"></path>
                <path d="M18.6820008,34.6820008 C16.9245934,36.4393331 14.0753316,36.4393331 12.3179992,34.6820008 C10.5606669,32.9245934 10.5606669,30.0754066 12.3179992,28.3179992 C14.0753316,26.5606669 16.9245934,26.5606669 18.6820008,28.3179992 C20.4393331,30.0754066 20.4393331,32.9245934 18.6820008,34.6820008 Z" id="路径" fill-rule="nonzero"></path>
            </g>
        </g>
    </g>
</svg>