<?xml version="1.0" standalone="no"?><!DOCTYPE svg PUBLIC "-//W3C//DTD SVG 1.1//EN" "http://www.w3.org/Graphics/SVG/1.1/DTD/svg11.dtd"><svg t="1766051726518" class="icon" viewBox="0 0 1024 1024" version="1.1" xmlns="http://www.w3.org/2000/svg" p-id="3902" xmlns:xlink="http://www.w3.org/1999/xlink" width="200" height="200"><path d="M521.85354821 376.97628751V370.74302022a45.00554821 45.00554821 0 0 1 24.88806787-40.25746258l180.02219038-90.01109518a45.00554821 45.00554821 0 0 1 40.23495945 0l180.02219039 90.01109518A45.00554821 45.00554821 0 0 1 971.90902416 370.74302022v202.52496387a45.00554821 45.00554821 0 0 1-24.88806786 40.25746258l-180.02219039 90.01109517a45.00554821 45.00554821 0 0 1-40.23495945 0l-180.02219038-90.01109517A45.00554821 45.00554821 0 0 1 521.85354821 573.26798409v-144.46780842l-59.74486526-34.13670722L296.82580963 477.31615607v56.88701263l177.636896 88.81844799A45.00554821 45.00554821 0 0 1 499.35077349 663.27907927v202.5249651a45.00554821 45.00554821 0 0 1-24.88806786 40.25746256l-180.02219038 90.0110952a45.00554821 45.00554821 0 0 1-40.23495945 0l-180.02219038-90.0110952A45.00554821 45.00554821 0 0 1 49.29529754 865.80404437v-202.5249651a45.00554821 45.00554821 0 0 1 24.88806788-40.25746258L251.82026142 534.2031687v-56.88701263l-177.636896-88.818448A45.00554821 45.00554821 0 0 1 49.29529754 348.24024549v-202.52496386a45.00554821 45.00554821 0 0 1 24.88806788-40.25746259l180.02219038-90.01109518a45.00554821 45.00554821 0 0 1 40.23495945 0l180.02219038 90.01109518A45.00554821 45.00554821 0 0 1 499.35077349 145.71528163v202.52496386c0 5.01811821-0.8326021 9.90122013-2.40779627 14.49178636l24.91057099 14.24425566zM566.85909519 573.26798409l157.51941689 78.75970842v-166.11547665l-157.51941689-78.75970846V573.26798409z m-191.18356586-227.99810439a22.50277349 22.50277349 0 1 1 22.32275096-39.0648154L454.34522652 338.38403038v-156.25926155l-157.51941689 78.75970843V426.99995394l118.31958398-59.1822945-39.46986428-22.54777974zM296.82580963 584.51937083V663.27907927a22.50277349 22.50277349 0 0 1-45.00554821 0v-78.75970844l-143.61270195 71.80635221L274.32303492 739.38346074l166.11547665-83.0577377L296.82580963 584.51937083z m472.55825065 67.50832168l157.5194169-78.75970842v-166.11547669l-157.5194169 78.75970845V652.02769251zM746.88128557 280.7319238l-166.11547544 83.05773894L746.88128557 446.84740047l166.11547668-83.05773773L746.88128557 280.7319238z m-495.06102415-19.84744653l-157.51941689-78.75970844V348.24024549l157.51941689 78.75970845v-166.11547667z m188.61825015-122.12255311L274.32303492 55.70418642l-166.11547545 83.05773774L274.32303492 221.81966188l166.11547665-83.05773772zM454.34522652 865.80404437v-166.11547667l-157.51941689 78.75970845V944.56375282l157.51941689-78.75970845z m-202.5249651-87.35576822l-157.51941689-78.75970845V865.80404437l157.51941689 78.75970845v-166.11547667z" p-id="3903"></path><path d="M566.85909519 573.26798409l157.51941689 78.75970842v-166.11547665l-157.51941689-78.75970846V573.26798409z m-191.18356586-227.99810439a22.50277349 22.50277349 0 1 1 22.32275096-39.0648154L454.34522652 338.38403038v-156.25926155l-157.51941689 78.75970843V426.99995394l118.31958398-59.1822945-39.46986428-22.54777974zM296.82580963 584.51937083V663.27907927a22.50277349 22.50277349 0 0 1-45.00554821 0v-78.75970844l-143.61270195 71.80635221L274.32303492 739.38346074l166.11547665-83.0577377L296.82580963 584.51937083z m472.55825065 67.50832168l157.5194169-78.75970842v-166.11547669l-157.5194169 78.75970845V652.02769251zM746.88128557 280.7319238l-166.11547544 83.05773894L746.88128557 446.84740047l166.11547668-83.05773773L746.88128557 280.7319238z m-495.06102415-19.84744653l-157.51941689-78.75970844V348.24024549l157.51941689 78.75970845v-166.11547667z m188.61825015-122.12255311L274.32303492 55.70418642l-166.11547545 83.05773774L274.32303492 221.81966188l166.11547665-83.05773772zM454.34522652 865.80404437v-166.11547667l-157.51941689 78.75970845V944.56375282l157.51941689-78.75970845z m-202.5249651-87.35576822l-157.51941689-78.75970845V865.80404437l157.51941689 78.75970845v-166.11547667z" fill="#FFFFFF00" p-id="3904"></path></svg>