<?xml version="1.0" standalone="no"?><!DOCTYPE svg PUBLIC "-//W3C//DTD SVG 1.1//EN" "http://www.w3.org/Graphics/SVG/1.1/DTD/svg11.dtd"><svg t="1764830060073" class="icon" viewBox="0 0 1024 1024" version="1.1" xmlns="http://www.w3.org/2000/svg" p-id="14883" xmlns:xlink="http://www.w3.org/1999/xlink" width="256" height="256"><path d="M693.875403 428.929661a52.670947 52.670947 0 0 0 16.511669-38.399232V217.221896a52.414952 52.414952 0 0 0-25.599488-45.247095L537.590528 85.320534a50.366993 50.366993 0 0 0-51.198976 0L339.194496 171.974801a52.414952 52.414952 0 0 0-25.599488 45.247095v173.308533c0 14.719706 6.143877 28.607428 16.51167 38.399232 3.071939 1.471971 6.143877 3.135937 9.087818 4.863903l147.197056 86.654267c3.391932 1.98396 6.655867 4.095918 9.791804 6.399872 10.239795 3.391932 21.375572 3.391932 31.615368 0 3.199936-2.303954 6.399872-4.415912 9.791804-6.399872l147.197056-86.654267a127.357453 127.357453 0 0 1 9.087819-4.863903zM566.901942 595.070339a52.670947 52.670947 0 0 0-16.51167 38.399232v173.308533c0 18.687626 9.727805 35.903282 25.599488 45.247095l147.197056 86.654267a50.366993 50.366993 0 0 0 51.198976 0l147.197056-86.654267a52.414952 52.414952 0 0 0 25.599488-45.247095V633.469571a52.414952 52.414952 0 0 0-25.599488-45.183097l-147.197056-86.654267a50.302994 50.302994 0 0 0-41.407172-4.47991c-3.199936 2.303954-6.399872 4.415912-9.791804 6.399872L575.98976 590.206436a127.357453 127.357453 0 0 1-9.087818 4.863903z m216.699666-173.820524c10.047799 2.879942 19.839603 7.039859 29.183416 12.543749L959.98208 520.447831c39.615208 23.295534 63.99872 66.430671 63.99872 113.02174v173.308533c0 46.719066-24.383512 89.726205-63.99872 113.085739l-147.197056 86.654267a125.885482 125.885482 0 0 1-127.99744 0l-147.197056-86.654267a128.189436 128.189436 0 0 1-25.599488-19.839603 128.189436 128.189436 0 0 1-25.599488 19.839603l-147.197056 86.654267a125.885482 125.885482 0 0 1-127.99744 0L64 919.863843a131.00538 131.00538 0 0 1-63.99872-113.085739V633.469571c0-46.591068 24.383512-89.726205 63.99872-113.02174l147.197056-86.654267c9.279814-5.50389 19.135617-9.663807 29.183416-12.543749a132.925341 132.925341 0 0 1-3.583928-30.719386V217.221896c0-46.719066 24.383512-89.726205 63.99872-113.085739L447.99232 17.48189a125.885482 125.885482 0 0 1 127.99744 0l147.197056 86.654267c39.615208 23.359533 63.99872 66.430671 63.99872 113.085739v173.308533c0 10.431791-1.279974 20.735585-3.583928 30.719386zM473.591808 806.778104V633.469571a52.670947 52.670947 0 0 0-16.51167-38.399232A127.357453 127.357453 0 0 1 447.99232 590.206436L300.795264 503.552169a127.933441 127.933441 0 0 1-9.791804-6.399872 50.302994 50.302994 0 0 0-41.407172 4.47991L102.399232 588.286474a52.414952 52.414952 0 0 0-25.599488 45.183097v173.308533c0 18.687626 9.727805 35.903282 25.599488 45.247095l147.197056 86.654267a50.366993 50.366993 0 0 0 51.198976 0L447.99232 852.025199a52.414952 52.414952 0 0 0 25.599488-45.247095z m77.054459-480.50239l0.767985 92.286155a38.01524 38.01524 0 0 1-38.591228 38.271234 39.551209 39.551209 0 0 1-39.295215-38.97522l-0.831983-92.542149-78.782424-44.671107a38.01524 38.01524 0 0 1-13.823724-52.542949 39.551209 39.551209 0 0 1 53.374933-14.591708l79.102418 44.799104 78.078438-45.951081a38.01524 38.01524 0 0 1 52.478951 14.335713 39.551209 39.551209 0 0 1-14.079719 53.438931l-78.398432 46.143077z m-236.795264 416.311674l0.767985 92.222156a38.01524 38.01524 0 0 1-38.591229 38.271234 39.551209 39.551209 0 0 1-39.295214-38.911221l-0.831983-92.606148-78.782424-44.607108a38.01524 38.01524 0 0 1-13.823724-52.606948 39.551209 39.551209 0 0 1 53.374933-14.527709l79.102418 44.799104 78.078438-45.951081a38.01524 38.01524 0 0 1 52.47895 14.271714 39.551209 39.551209 0 0 1-14.079718 53.50293l-78.398432 46.143077z m473.590528 0l0.767985 92.222156a38.01524 38.01524 0 0 1-38.591228 38.271234 39.551209 39.551209 0 0 1-39.295214-38.911221l-0.831984-92.606148-78.782424-44.607108a38.01524 38.01524 0 0 1-13.823724-52.606948 39.551209 39.551209 0 0 1 53.374933-14.527709l79.102418 44.799104 78.078438-45.951081a38.01524 38.01524 0 0 1 52.478951 14.271714 39.551209 39.551209 0 0 1-14.079719 53.50293l-78.398432 46.143077z" p-id="14884"></path></svg>