<?xml version="1.0" standalone="no"?><!DOCTYPE svg PUBLIC "-//W3C//DTD SVG 1.1//EN" "http://www.w3.org/Graphics/SVG/1.1/DTD/svg11.dtd"><svg t="1764829775970" class="icon" viewBox="0 0 1024 1024" version="1.1" xmlns="http://www.w3.org/2000/svg" p-id="10952" xmlns:xlink="http://www.w3.org/1999/xlink" width="256" height="256"><path d="M512 2.752a32 32 0 0 1 12.544 2.56l94.592 40.192c77.632 32.96 158.464 55.488 240.704 67.136l72.64 10.24a32 32 0 0 1 27.52 31.744v368.448c0 107.648-51.328 248.32-134.208 301.12L529.152 1013.12a32 32 0 0 1-34.368 0l-296.576-188.864C115.328 771.392 64 630.72 64 523.072V154.624a32 32 0 0 1 27.52-31.68l72.64-10.304A958.528 958.528 0 0 0 404.8 45.44L499.52 5.376A32 32 0 0 1 512 2.752zM512 104.32l-69.632 29.568a1058.304 1058.304 0 0 1-264.768 73.792l-17.6 2.56v312.832c0 85.312 42.752 190.208 89.792 220.16L512 910.208l262.208-167.04c47.04-29.888 89.792-134.784 89.792-220.16V210.24l-17.6-2.496a1058.304 1058.304 0 0 1-264.768-73.792L512 104.32z m48 247.68v320h-96v-320h96z"  p-id="10953"></path></svg>