<?xml version="1.0" standalone="no"?><!DOCTYPE svg PUBLIC "-//W3C//DTD SVG 1.1//EN" "http://www.w3.org/Graphics/SVG/1.1/DTD/svg11.dtd"><svg t="1766293510659" class="icon" viewBox="0 0 1024 1024" version="1.1" xmlns="http://www.w3.org/2000/svg" p-id="3962" xmlns:xlink="http://www.w3.org/1999/xlink" width="200" height="200"><path d="M931.8187611 109.46332445a46.21501667 46.21501667 0 0 1 45.82665557 40.38959445l0.38836111 5.82542222v693.22524445a46.21501667 46.21501667 0 0 1-40.38959445 45.82665443l-5.82542223 0.3883611H99.94846777a46.21501667 46.21501667 0 0 1-45.82665444-40.38959331l-0.3883611-5.82542222V155.67834112a46.21501667 46.21501667 0 0 1 40.38959332-45.82665557l5.82542222-0.3883611h831.87029333z m0 46.21501667H99.94846777v693.22524445h831.87029333V155.67834112z m-196.12254777 388.98285909v84.74047602h-256.43508622v127.07187598L289.08051001 573.28344178a16.62187179 16.62187179 0 0 1 11.534336-28.62224157H735.69621333z m-183.19011043-296.55282688l190.14178133 183.19011044a16.62187179 16.62187179 0 0 1-11.534336 28.62224156H296.07101667v-84.74047488h256.43508623V248.10837333z" p-id="3963"></path></svg>