<svg width="103" height="22" viewBox="0 0 103 22" fill="none" xmlns="http://www.w3.org/2000/svg">
<g clip-path="url(#clip0_4126_4159)">
<path d="M31.9447 3.28186C30.7404 3.28186 29.5798 3.43318 29.1071 3.56109C28.4192 3.75453 28.2476 4.0556 28.1181 4.67958L25.3882 17.2762C25.3445 17.5336 25.3024 17.7489 25.3024 17.9641C25.3024 18.5881 25.7111 18.9953 26.3772 18.9953C27.1088 18.9953 27.4099 18.5226 27.5596 17.791L28.3334 14.2015C28.87 14.2655 29.5798 14.331 30.5906 14.331C35.0412 14.331 37.8132 11.924 37.8132 8.29087C37.8132 5.10856 35.5981 3.28186 31.9447 3.28186ZM30.483 12.2672C29.7951 12.2672 29.2569 12.2453 28.7639 12.1814L30.2038 5.49543C30.6546 5.43147 31.3223 5.34412 32.0102 5.34412C34.3751 5.34412 35.5794 6.4626 35.5794 8.31114C35.5778 10.676 33.8572 12.2672 30.483 12.2672Z" fill="white"/>
<path d="M101.979 14.8462C101.614 14.8462 101.377 15.0615 100.926 15.556C100.13 16.3734 99.6357 16.8242 99.0133 16.8242C98.4548 16.8242 98.1537 16.3734 98.1537 15.6418C98.1537 15.2331 98.2395 14.7385 98.3472 14.2019L99.1427 10.4612H101.529C102.281 10.4612 102.734 10.0306 102.734 9.25688C102.734 8.82633 102.455 8.50498 101.81 8.50498H99.5717L99.9586 6.76407C100.002 6.50668 100.044 6.26957 100.044 6.05429C100.044 5.45215 99.6357 5.02161 98.9696 5.02161C98.2598 5.02161 97.9385 5.49427 97.7871 6.22589L97.2926 8.50498H96.2818C95.508 8.50498 95.0572 8.93553 95.0572 9.70926C95.0572 10.1398 95.3583 10.4612 96.0026 10.4612H96.8839L96.0884 14.1582C96.0026 14.567 95.8949 15.2331 95.8949 15.921C95.8949 17.6619 96.7981 18.9301 98.7325 18.9301C99.851 18.9301 100.838 18.3717 101.592 17.704C102.323 17.0598 102.86 16.2642 102.86 15.7478C102.86 15.2549 102.473 14.8462 101.979 14.8462Z" fill="white"/>
<path d="M52.5375 4.55014C52.5375 3.92616 52.107 3.51746 51.4409 3.51746C50.7311 3.51746 50.4098 3.99012 50.2584 4.72174L47.5722 17.2107C47.5083 17.4681 47.4646 17.6834 47.4646 17.8987C47.4646 18.5226 47.8951 18.9298 48.5394 18.9298C49.271 18.9298 49.5923 18.4571 49.7437 17.7255L52.4299 5.23808C52.4736 4.97913 52.5375 4.76542 52.5375 4.55014Z" fill="white"/>
<path d="M90.9077 8.28991C87.468 8.28991 85.125 11.7078 85.125 14.954C85.125 15.0149 85.1265 15.0757 85.1281 15.135C84.5883 15.9539 83.8988 16.8026 83.4262 16.8026C83.083 16.8026 82.9535 16.4797 82.9535 15.9851C82.9535 15.383 83.1251 14.3722 83.3185 13.4908L85.1031 5.23552C85.1468 4.97813 85.1889 4.76285 85.1889 4.54758C85.1889 3.9236 84.7802 3.51489 84.1141 3.51489C83.3825 3.51489 83.083 3.98756 82.9317 4.71918L81.9645 9.19C81.4482 8.65337 80.6947 8.28679 79.5559 8.28679C77.2722 8.28679 74.9744 10.0449 74.0789 12.742C73.0931 15.291 72.2117 16.7994 71.5159 16.7994C71.2586 16.7994 71.1072 16.5842 71.1072 16.2191C71.1072 15.1443 71.7094 12.5221 71.9668 11.2538C72.0526 10.7811 72.0963 10.5877 72.0963 10.3085C72.0963 9.36315 70.5269 8.24467 68.485 8.24467C66.1232 8.24467 63.9845 9.74066 62.9128 11.962C61.3201 14.7762 59.8584 16.7994 59.1346 16.7994C58.8117 16.7994 58.7041 16.3907 58.6183 16.0039L58.0832 13.0415L61.3716 10.3553C61.6726 10.0979 62.0595 9.7313 62.0595 9.25864C62.0595 8.67833 61.6727 8.29147 61.0923 8.29147C60.6618 8.29147 60.2968 8.54886 59.9317 8.84993L54.9883 12.9339L56.6434 5.23864C56.687 4.98125 56.751 4.76597 56.751 4.5507C56.751 3.92672 56.3205 3.51801 55.6544 3.51801C54.9446 3.51801 54.6232 3.99068 54.4719 4.7223L51.7857 17.2113C51.7217 17.4687 51.678 17.6839 51.678 17.8992C51.678 18.5232 52.1086 18.9303 52.7528 18.9303C53.4845 18.9303 53.8058 18.4577 53.9571 17.7261L54.3019 16.1146L56.322 14.4814L56.8165 16.9742C57.01 17.9632 57.5263 18.9303 58.8585 18.9303C60.1845 18.9303 61.2281 17.7198 62.2732 16.0834C62.5899 17.7978 63.8098 18.9303 65.5023 18.9303C67.2011 18.9303 68.3617 17.9195 69.1136 16.5655V16.6091C69.1136 18.0068 69.8234 18.9303 71.0698 18.9303C72.1976 18.9303 73.1336 18.2502 73.9697 16.8057C74.444 18.0646 75.5047 18.9303 76.9805 18.9303C78.7214 18.9303 79.9678 17.8774 80.7633 16.4157V16.5452C80.7633 18.0926 81.5371 18.9319 82.8053 18.9319C83.9254 18.9319 84.8769 18.2814 85.6897 17.2238C86.3074 18.2814 87.415 18.9319 88.911 18.9319C92.3507 18.9319 94.6937 15.514 94.6937 12.2459C94.6921 9.94501 93.2944 8.28991 90.9077 8.28991ZM69.4771 12.6547C68.8531 15.3409 67.5209 16.8681 66.0156 16.8681C65.0047 16.8681 64.4462 16.0943 64.4462 14.9337C64.4462 12.6547 66.1013 10.204 68.3149 10.204C68.981 10.204 69.4974 10.3974 69.9482 10.6766L69.4771 12.6547ZM81.4497 11.5159C80.7618 14.6763 79.1925 16.8681 77.4734 16.8681C76.5281 16.8681 75.968 16.1365 75.968 14.9337C75.968 12.6344 77.5592 10.2476 79.687 10.2476C80.5044 10.2476 81.1268 10.5269 81.5792 10.8919L81.4497 11.5159ZM89.1668 16.8681C87.9204 16.8681 87.4041 15.9649 87.4041 14.8261C87.4041 12.7404 88.8439 10.3553 90.6503 10.3553C91.8967 10.3553 92.4131 11.2585 92.4131 12.3973C92.4131 14.5032 90.9732 16.8681 89.1668 16.8681Z" fill="white"/>
<path d="M43.1655 8.28918C39.7258 8.28918 37.3828 11.707 37.3828 14.9533C37.3828 17.2745 38.7805 18.9296 41.1656 18.9296C44.6053 18.9296 46.9484 15.5118 46.9484 12.2437C46.9484 9.94429 45.5507 8.28918 43.1655 8.28918ZM41.4246 16.8674C40.1782 16.8674 39.6618 15.9641 39.6618 14.8254C39.6618 12.7397 41.1017 10.3546 42.9081 10.3546C44.1545 10.3546 44.6708 11.2578 44.6708 12.3965C44.6693 14.5025 43.2295 16.8674 41.4246 16.8674Z" fill="white"/>
<path d="M10.3424 4.61434C12.5333 4.61434 14.3094 3.58138 14.3094 2.30717C14.3094 1.03295 12.5333 0 10.3424 0C8.15156 0 6.37549 1.03295 6.37549 2.30717C6.37549 3.58138 8.15156 4.61434 10.3424 4.61434Z" fill="#E6007A"/>
<path d="M10.3424 21.9986C12.5333 21.9986 14.3094 20.9657 14.3094 19.6914C14.3094 18.4172 12.5333 17.3843 10.3424 17.3843C8.15156 17.3843 6.37549 18.4172 6.37549 19.6914C6.37549 20.9657 8.15156 21.9986 10.3424 21.9986Z" fill="#E6007A"/>
<path d="M4.81429 7.80816C5.90973 5.91085 5.90262 3.85595 4.79841 3.21841C3.69419 2.58087 1.91102 3.60212 0.815571 5.49943C-0.279874 7.39674 -0.272764 9.45164 0.831451 10.0892C1.93567 10.7267 3.71884 9.70547 4.81429 7.80816Z" fill="#E6007A"/>
<path d="M19.8678 16.4989C20.9632 14.6015 20.9567 12.547 19.8533 11.9099C18.7498 11.2728 16.9672 12.2944 15.8718 14.1917C14.7763 16.089 14.7828 18.1436 15.8863 18.7807C16.9898 19.4178 18.7724 18.3962 19.8678 16.4989Z" fill="#E6007A"/>
<path d="M4.7989 18.7805C5.90311 18.143 5.91022 16.0881 4.81478 14.1907C3.71933 12.2934 1.93616 11.2722 0.83194 11.9097C-0.272276 12.5473 -0.279386 14.6022 0.816059 16.4995C1.9115 18.3968 3.69468 19.418 4.7989 18.7805Z" fill="#E6007A"/>
<path d="M19.8541 10.0893C20.9576 9.45215 20.9641 7.3976 19.8687 5.50029C18.7732 3.60298 16.9906 2.58138 15.8872 3.21849C14.7837 3.85559 14.7772 5.91014 15.8726 7.80746C16.9681 9.70477 18.7507 10.7264 19.8541 10.0893Z" fill="#E6007A"/>
</g>
<defs>
<clipPath id="clip0_4126_4159">
<rect width="102.86" height="22" fill="white"/>
</clipPath>
</defs>
</svg>
