<?xml version="1.0" encoding="UTF-8"?>
<svg width="152px" height="162px" viewBox="0 0 152 162" version="1.1" xmlns="http://www.w3.org/2000/svg" xmlns:xlink="http://www.w3.org/1999/xlink">
    <title>consensus</title>
    <g id="页面-1" stroke="none" stroke-width="1" fill="none" fill-rule="evenodd">
        <g id="consensus" transform="translate(0.238281, 0.656250)" fill="#50FA82" fill-rule="nonzero">
            <path d="M144.6875,109.628906 C146.777344,102.773438 147.832031,95.6445312 147.832031,88.3984375 C147.832031,56.796875 126.894531,28.3789062 96.8164063,18.984375 C96.0546875,8.37890625 87.1875,0 76.3867188,0 C65.859375,0 57.1679688,7.98828125 56.0351563,18.2226562 C55.9960938,18.2226562 55.9570313,18.2421875 55.9375,18.2421875 C24.4140625,26.8359375 2.40234375,55.703125 2.40234375,88.3984375 C2.40234375,95.9765625 3.57421875,103.457031 5.859375,110.605469 C2.2265625,114.296875 3.55271368e-15,119.355469 3.55271368e-15,124.941406 C3.55271368e-15,136.230469 9.1796875,145.429688 20.4882813,145.429688 C23.203125,145.429688 25.8007813,144.902344 28.1640625,143.925781 C41.2695312,155.019531 57.9101562,161.132812 75.1367188,161.132812 C92.5195313,161.132812 109.335938,154.902344 122.5,143.59375 L122.558594,143.535156 C125.15625,144.746094 128.066406,145.410156 131.132812,145.410156 C142.421875,145.410156 151.601562,136.230469 151.601562,124.921875 C151.582031,118.847656 148.90625,113.378906 144.6875,109.628906 L144.6875,109.628906 Z M76.40625,9.5703125 C82.421875,9.5703125 87.3046875,14.453125 87.3046875,20.46875 C87.3046875,26.484375 82.421875,31.3671875 76.40625,31.3671875 C70.390625,31.3671875 65.5078125,26.484375 65.5078125,20.46875 C65.5078125,14.4726562 70.390625,9.5703125 76.40625,9.5703125 L76.40625,9.5703125 Z M9.5703125,124.941406 C9.5703125,118.925781 14.453125,114.042969 20.46875,114.042969 C26.484375,114.042969 31.3671875,118.925781 31.3671875,124.941406 C31.3671875,130.957031 26.484375,135.839844 20.46875,135.839844 C14.453125,135.839844 9.5703125,130.9375 9.5703125,124.941406 L9.5703125,124.941406 Z M36.1523438,138.085938 C39.140625,134.53125 40.9375,129.941406 40.9375,124.941406 C40.9375,113.652344 31.7578125,104.472656 20.46875,104.472656 C18.3203125,104.472656 16.25,104.804688 14.296875,105.429688 C12.7539063,99.921875 11.9921875,94.21875 11.9921875,88.4179688 C11.9921875,60.4296875 30.5664063,35.6835938 57.3046875,27.8320312 C60.2539063,35.5078125 67.7148438,40.9570312 76.4257813,40.9570312 C84.8632813,40.9570312 92.109375,35.8398438 95.2539062,28.5351563 C120.664062,37.0898437 138.261719,61.4257812 138.261719,88.3984375 C138.261719,94.0625 137.519531,99.6484375 136.035156,105.058594 C134.453125,104.667969 132.792969,104.453125 131.09375,104.453125 C119.804688,104.453125 110.625,113.632812 110.625,124.921875 C110.625,129.628906 112.226563,133.964844 114.902344,137.421875 C103.691406,146.542969 89.6289063,151.542969 75.1171875,151.542969 C60.9570313,151.542969 47.2265625,146.796875 36.1523438,138.085938 Z M131.113281,135.839844 C125.097656,135.839844 120.214844,130.957031 120.214844,124.941406 C120.214844,118.925781 125.097656,114.042969 131.113281,114.042969 C137.128906,114.042969 142.011719,118.925781 142.011719,124.941406 C142.011719,130.9375 137.109375,135.839844 131.113281,135.839844 Z" id="形状"></path>
            <path d="M30.625,114.042969 C29.8632813,114.042969 29.0820313,113.867188 28.3789063,113.476563 C26.0546875,112.226563 25.15625,109.335938 26.40625,106.992188 L65.46875,33.90625 C66.71875,31.5820313 69.609375,30.6835938 71.953125,31.9335938 C74.2773438,33.1835938 75.1757813,36.0742188 73.9257813,38.4179688 L34.8632813,111.503906 C34.0039063,113.125 32.34375,114.042969 30.625,114.042969 Z M115.410156,126.5625 L35.8398438,126.5625 C33.203125,126.5625 31.0546875,124.414062 31.0546875,121.777344 C31.0546875,119.140625 33.203125,116.992187 35.8398438,116.992187 L115.410156,116.992187 C118.046875,116.992187 120.195313,119.140625 120.195313,121.777344 C120.195313,124.414062 118.066406,126.5625 115.410156,126.5625 Z M123.144531,114.042969 C121.445313,114.042969 119.804688,113.144531 118.945313,111.5625 L78.9257813,38.4570312 C77.65625,36.1328125 78.515625,33.2226562 80.8203125,31.953125 C83.1445313,30.6640625 86.0546875,31.5234375 87.3242188,33.8476562 L127.324219,106.953125 C128.59375,109.277344 127.734375,112.1875 125.429688,113.457031 C124.707031,113.847656 123.90625,114.042969 123.144531,114.042969 L123.144531,114.042969 Z" id="形状" opacity="0.5"></path>
        </g>
    </g>
</svg>