<?xml version="1.0" encoding="UTF-8"?>
<svg width="638px" height="398px" viewBox="0 0 638 398" version="1.1" xmlns="http://www.w3.org/2000/svg" xmlns:xlink="http://www.w3.org/1999/xlink">
    <title>logo</title>
    <g id="页面-1" stroke="none" stroke-width="1" fill="none" fill-rule="evenodd">
        <g id="编组" transform="translate(-126.000000, -246.000000)" fill="#50FA82" fill-rule="nonzero">
            <g id="dc" transform="translate(126.000000, 246.000000)">
                <path d="M532.264738,316.255741 L450.796218,316.255741 L450.796218,397.730846 L532.264738,397.730846 L532.264738,316.255741 Z M426.697683,105.41858 L345.229163,105.41858 L345.229163,186.893685 L426.697683,186.893685 L426.697683,105.41858 Z M426.54069,210.444645 L345.072169,210.444645 L345.072169,292.312266 L426.54069,292.312266 L426.54069,210.444645 Z M426.54069,316.984699 L345.072169,316.984699 L345.072169,365.208093 L426.54069,365.208093 L426.54069,316.984699 Z M638,0 L556.53148,0 L556.53148,81.475105 L638,81.475105 L638,0 Z M637.674799,316.524895 L556.206278,316.524895 L556.206278,398 L637.674799,398 L637.674799,316.524895 Z M426.697683,0.269153822 L345.229163,0.269153822 L345.229163,81.7442588 L426.697683,81.7442588 L426.697683,0.269153822 Z M532.107744,0.527092902 L450.639224,0.527092902 L450.639224,82.0021979 L532.107744,82.0021979 L532.107744,0.527092902 Z" id="形状"></path>
                <path d="M81.636728,210.837161 L0.168207544,210.837161 L0.168207544,292.312266 L81.636728,292.312266 L81.636728,210.837161 Z M186.878581,316.255741 L105.410061,316.255741 L105.410061,397.730846 L186.878581,397.730846 L186.878581,316.255741 Z M292.131648,210.837161 L210.663128,210.837161 L210.663128,292.312266 L292.131648,292.312266 L292.131648,210.837161 Z M291.974655,316.255741 L210.506134,316.255741 L210.506134,362.236186 L291.974655,362.236186 L291.974655,316.255741 Z M81.7937217,0 L0.325201251,0 L0.325201251,81.475105 L81.7937217,81.475105 L81.7937217,0 Z M81.636728,105.687734 L0.168207544,105.687734 L0.168207544,187.162839 L81.636728,187.162839 L81.636728,105.687734 Z M81.4685204,316.524895 L0,316.524895 L0,398 L81.4685204,398 L81.4685204,316.524895 Z M292.131648,105.687734 L210.663128,105.687734 L210.663128,187.162839 L292.131648,187.162839 L292.131648,105.687734 Z M292.131648,0.269153822 L210.663128,0.269153822 L210.663128,81.7442588 L292.131648,81.7442588 L292.131648,0.269153822 Z M186.721588,0.527092902 L105.253067,0.527092902 L105.253067,82.0021979 L186.721588,82.0021979 L186.721588,0.527092902 Z" id="形状"></path>
            </g>
        </g>
    </g>
</svg>