<?xml version="1.0" encoding="UTF-8"?>
<svg width="1579px" height="351px" viewBox="0 0 1579 351" version="1.1" xmlns="http://www.w3.org/2000/svg" xmlns:xlink="http://www.w3.org/1999/xlink">
    <title>编组 8</title>
    <g id="页面-1" stroke="none" stroke-width="1" fill="none" fill-rule="evenodd">
        <g id="logo-w" transform="translate(-146.000000, -172.000000)" fill-rule="nonzero">
            <g id="编组-8" transform="translate(146.000000, 172.000000)">
                <g id="ETEE" transform="translate(464.797391, 58.900000)" fill="#FFFFFF">
                    <path d="M0,0 L240.22087,0 L240.22087,31.9 L31.9,31.9 L31.9,255.2 L240.22087,255.2 L240.22087,287.1 L0,287.1 L0,0 Z M43.5504348,127.6 L239.943478,127.6 L239.943478,159.5 L62.1356522,159.5 L43.5504348,127.6 Z" id="形状"></path>
                    <polygon id="路径" points="291.538261 31.9 291.538261 0 530.649565 0 512.064348 31.9 426.905217 31.9 426.905217 287.1 395.005217 287.1 395.005217 31.9"></polygon>
                    <path d="M583.076522,0 L823.297391,0 L823.297391,31.9 L614.976522,31.9 L614.976522,255.2 L823.297391,255.2 L823.297391,287.1 L583.076522,287.1 L583.076522,0 Z M626.626957,127.6 L823.02,127.6 L823.02,159.5 L645.212174,159.5 L626.626957,127.6 Z" id="形状"></path>
                    <path d="M873.782609,0 L1114.00348,0 L1114.00348,31.9 L905.682609,31.9 L905.682609,255.2 L1114.00348,255.2 L1114.00348,287.1 L873.782609,287.1 L873.782609,0 Z M917.333043,127.6 L1113.72609,127.6 L1113.72609,159.5 L935.918261,159.5 L917.333043,127.6 Z" id="形状"></path>
                </g>
                <g id="编组">
                    <polygon id="路径-2" fill="#D9D6D6" points="267.928287 205.179283 294.820717 232.071713 265.936255 259.960159 239.043825 236.055777"></polygon>
                    <polygon id="三角形" fill="#FFFFFF" points="3.0582277e-16 181.2749 183.266932 350.59761 0 350.59761"></polygon>
                    <polygon id="路径" fill="#FFFFFF" points="0 0 8.37384197e-15 128.486056 238.047809 350.59761 357.569721 350.59761 357.569721 170.318725 265.936255 259.960159 241.035857 235.059761 357.569721 115.537849 357.569721 2.98804781 179.282869 175.298805"></polygon>
                </g>
            </g>
        </g>
    </g>
</svg>