<?xml version="1.0" encoding="UTF-8"?>
<svg width="3236px" height="351px" viewBox="0 0 3236 351" version="1.1" xmlns="http://www.w3.org/2000/svg" xmlns:xlink="http://www.w3.org/1999/xlink">
    <title>logo-lanch</title>
    <g id="页面-1" stroke="none" stroke-width="1" fill="none" fill-rule="evenodd">
        <g id="logo-lanch">
            <g id="编组-8" fill-rule="nonzero">
                <g id="ETEE" transform="translate(464.797391, 58.900000)" fill="#FFFFFF">
                    <path d="M0,0 L240.22087,0 L240.22087,31.9 L31.9,31.9 L31.9,255.2 L240.22087,255.2 L240.22087,287.1 L0,287.1 L0,0 Z M43.5504348,127.6 L239.943478,127.6 L239.943478,159.5 L62.1356522,159.5 L43.5504348,127.6 Z" id="形状"></path>
                    <polygon id="路径" points="291.538261 31.9 291.538261 0 530.649565 0 512.064348 31.9 426.905217 31.9 426.905217 287.1 395.005217 287.1 395.005217 31.9"></polygon>
                    <path d="M583.076522,0 L823.297391,0 L823.297391,31.9 L614.976522,31.9 L614.976522,255.2 L823.297391,255.2 L823.297391,287.1 L583.076522,287.1 L583.076522,0 Z M626.626957,127.6 L823.02,127.6 L823.02,159.5 L645.212174,159.5 L626.626957,127.6 Z" id="形状"></path>
                    <path d="M873.782609,0 L1114.00348,0 L1114.00348,31.9 L905.682609,31.9 L905.682609,255.2 L1114.00348,255.2 L1114.00348,287.1 L873.782609,287.1 L873.782609,0 Z M917.333043,127.6 L1113.72609,127.6 L1113.72609,159.5 L935.918261,159.5 L917.333043,127.6 Z" id="形状"></path>
                </g>
                <g id="编组">
                    <polygon id="路径-2" fill="#D9D6D6" points="267.928287 205.179283 294.820717 232.071713 265.936255 259.960159 239.043825 236.055777"></polygon>
                    <polygon id="三角形" fill="#FFFFFF" points="3.0582277e-16 181.2749 183.266932 350.59761 0 350.59761"></polygon>
                    <polygon id="路径" fill="#FFFFFF" points="0 0 8.37384197e-15 128.486056 238.047809 350.59761 357.569721 350.59761 357.569721 170.318725 265.936255 259.960159 241.035857 235.059761 357.569721 115.537849 357.569721 2.98804781 179.282869 175.298805"></polygon>
                </g>
            </g>
            <g id="LANCH" transform="translate(1859.956522, 56.900000)" fill="#FFFFFF" fill-rule="nonzero">
                <polygon id="路径" points="31.9 255.2 183.078261 255.2 164.770435 287.1 -9.09494702e-13 287.1 -9.09494702e-13 255.2 -9.09494702e-13 0 31.9 0"></polygon>
                <polygon id="路径" points="385.573913 0 495.42087 287.1 463.52087 287.1 367.82087 36.8930435 326.766957 144.243478 393.618261 144.243478 375.033043 176.143478 314.561739 176.143478 272.12087 287.1 240.22087 287.1 350.067826 0 353.673913 0 381.967826 0"></polygon>
                <polygon id="路径" points="761.716522 0 793.33913 0 793.33913 285.990435 793.33913 287.1 755.336522 287.1 586.127826 45.4921739 586.127826 287.1 554.227826 287.1 554.227826 0 593.062609 0 761.716522 240.498261"></polygon>
                <path d="M984.461739,0 L1082.65826,0 L1064.35043,31.9 L987.790435,31.9 C970.037391,31.9 953.948696,35.09 939.524348,41.47 C925.1,47.85 913.449565,56.2642029 904.573043,66.7126087 C895.696522,77.1610145 888.854203,89.0888406 884.046087,102.496087 C879.237971,115.903333 876.833913,129.587971 876.833913,143.55 C876.833913,157.512029 879.237971,171.196667 884.046087,184.603913 C888.854203,198.011159 895.696522,209.938986 904.573043,220.387391 C913.449565,230.835797 925.1,239.25 939.524348,245.63 C953.948696,252.01 970.037391,255.2 987.790435,255.2 L1082.65826,255.2 L1082.65826,287.1 L984.461739,287.1 C939.524348,287.1 903.925797,272.12087 877.666087,242.162609 C856.214493,217.752174 844.471594,188.071304 842.437391,153.12 C840.218261,118.168696 848.170145,87.0084058 866.293043,59.6391304 C886.82,28.3863768 916.223478,9.33884058 954.503478,2.49652174 C964.11971,0.832173913 974.105797,0 984.461739,0 Z" id="路径"></path>
                <path d="M1343.40609,0 L1375.30609,0 L1375.30609,287.1 L1343.40609,287.1 L1343.40609,159.5 L1193.33739,159.5 L1174.75217,127.6 L1343.40609,127.6 L1343.40609,0 Z M1136.19478,0 L1168.09478,0 L1168.09478,287.1 L1136.19478,287.1 L1136.19478,0 Z" id="形状"></path>
            </g>
            <circle id="椭圆形" fill="#FFFFFF" cx="1729" cy="200" r="29"></circle>
        </g>
    </g>
</svg>