<svg width="22" height="22" viewBox="0 0 22 22" fill="none" xmlns="http://www.w3.org/2000/svg">
<g clip-path="url(#clip0_4126_4159)">
<path d="M10.3424 4.61434C12.5333 4.61434 14.3094 3.58138 14.3094 2.30717C14.3094 1.03295 12.5333 0 10.3424 0C8.15156 0 6.37549 1.03295 6.37549 2.30717C6.37549 3.58138 8.15156 4.61434 10.3424 4.61434Z" fill="#E6007A"/>
<path d="M10.3424 21.9986C12.5333 21.9986 14.3094 20.9657 14.3094 19.6914C14.3094 18.4172 12.5333 17.3843 10.3424 17.3843C8.15156 17.3843 6.37549 18.4172 6.37549 19.6914C6.37549 20.9657 8.15156 21.9986 10.3424 21.9986Z" fill="#E6007A"/>
<path d="M4.81429 7.80816C5.90973 5.91085 5.90262 3.85595 4.79841 3.21841C3.69419 2.58087 1.91102 3.60212 0.815571 5.49943C-0.279874 7.39674 -0.272764 9.45164 0.831451 10.0892C1.93567 10.7267 3.71884 9.70547 4.81429 7.80816Z" fill="#E6007A"/>
<path d="M19.8678 16.4989C20.9632 14.6015 20.9567 12.547 19.8533 11.9099C18.7498 11.2728 16.9672 12.2944 15.8718 14.1917C14.7763 16.089 14.7828 18.1436 15.8863 18.7807C16.9898 19.4178 18.7724 18.3962 19.8678 16.4989Z" fill="#E6007A"/>
<path d="M4.7989 18.7805C5.90311 18.143 5.91022 16.0881 4.81478 14.1907C3.71933 12.2934 1.93616 11.2722 0.83194 11.9097C-0.272276 12.5473 -0.279386 14.6022 0.816059 16.4995C1.9115 18.3968 3.69468 19.418 4.7989 18.7805Z" fill="#E6007A"/>
<path d="M19.8541 10.0893C20.9576 9.45215 20.9641 7.3976 19.8687 5.50029C18.7732 3.60298 16.9906 2.58138 15.8872 3.21849C14.7837 3.85559 14.7772 5.91014 15.8726 7.80746C16.9681 9.70477 18.7507 10.7264 19.8541 10.0893Z" fill="#E6007A"/>
</g>
<defs>
<clipPath id="clip0_4126_4159">
<rect width="22" height="22" fill="white"/>
</clipPath>
</defs>
</svg>
