<?xml version="1.0" encoding="UTF-8"?>
<svg width="836px" height="299px" viewBox="0 0 836 299" version="1.1" xmlns="http://www.w3.org/2000/svg" xmlns:xlink="http://www.w3.org/1999/xlink">
    <title>TTE</title>
    <g id="页面-1" stroke="none" stroke-width="1" fill="none" fill-rule="evenodd">
        <g id="logo-w" transform="translate(-21.000000, -26.000000)" fill="#50FA82" fill-rule="nonzero" stroke="#50FA82" stroke-width="10">
            <g id="TTE" transform="translate(26.906087, 31.900000)">
                <polygon id="路径" points="0 31.9 0 0 239.111304 0 220.526087 31.9 135.366957 31.9 135.366957 287.1 103.466957 287.1 103.466957 31.9"></polygon>
                <polygon id="路径" points="292.370435 31.9 292.370435 0 531.481739 0 512.896522 31.9 427.737391 31.9 427.737391 287.1 395.837391 287.1 395.837391 31.9"></polygon>
                <path d="M583.908696,0 L824.129565,0 L824.129565,31.9 L615.808696,31.9 L615.808696,255.2 L824.129565,255.2 L824.129565,287.1 L583.908696,287.1 L583.908696,0 Z M627.45913,127.6 L823.852174,127.6 L823.852174,159.5 L646.044348,159.5 L627.45913,127.6 Z" id="形状"></path>
            </g>
        </g>
    </g>
</svg>