<svg width="69" height="69" viewBox="0 0 69 69" fill="none" xmlns="http://www.w3.org/2000/svg"><script xmlns=""/>
<path d="M7 34.5C7 19.3122 19.3122 7 34.5 7V7C49.6878 7 62 19.3122 62 34.5V34.5C62 49.6878 49.6878 62 34.5 62V62C19.3122 62 7 49.6878 7 34.5V34.5Z" fill="white"/>
<path fill-rule="evenodd" clip-rule="evenodd" d="M40.9028 20.2562C40.9028 22.3566 37.9751 24.0593 34.3637 24.0593C30.7522 24.0593 27.8245 22.3566 27.8245 20.2562C27.8245 18.1558 30.7522 16.453 34.3637 16.453C37.9751 16.453 40.9028 18.1558 40.9028 20.2562ZM40.9028 48.9122C40.9028 51.0126 37.9751 52.7153 34.3637 52.7153C30.7522 52.7153 27.8245 51.0126 27.8245 48.9122C27.8245 46.8118 30.7522 45.1091 34.3637 45.1091C37.9751 45.1091 40.9028 46.8118 40.9028 48.9122ZM25.2507 29.3238C27.0565 26.1963 27.0447 22.809 25.2246 21.7581C23.4044 20.7072 20.465 22.3906 18.6593 25.5181C16.8535 28.6456 16.8652 32.0329 18.6854 33.0839C20.5056 34.1348 23.445 32.4514 25.2507 29.3238ZM50.0412 36.0856C51.8602 37.1358 51.8709 40.5225 50.0652 43.6501C48.2595 46.7776 45.3211 48.4616 43.5021 47.4114C41.6832 46.3612 41.6724 42.9744 43.4782 39.8469C45.2839 36.7194 48.2223 35.0354 50.0412 36.0856ZM25.2257 47.4104C27.0459 46.3594 27.0576 42.9721 25.2519 39.8446C23.4462 36.7171 20.5068 35.0337 18.6866 36.0846C16.8664 37.1355 16.8547 40.5228 18.6604 43.6503C20.4662 46.7779 23.4056 48.4613 25.2257 47.4104ZM50.0668 25.5202C51.8725 28.6477 51.8618 32.0344 50.0428 33.0846C48.2239 34.1348 45.2855 32.4508 43.4797 29.3233C41.674 26.1958 41.6847 22.8091 43.5037 21.7589C45.3226 20.7086 48.261 22.3926 50.0668 25.5202Z" fill="#E6007A"/>
<circle cx="34.5" cy="34.5" r="32.5" stroke="url(#paint0_linear_0_1)" stroke-width="4"/>
<mask id="path-5-outside-1_0_1" maskUnits="userSpaceOnUse" x="45" y="45" width="24" height="24" fill="black">
<rect fill="white" x="45" y="45" width="24" height="24"/>
<path d="M67 57C67 62.5228 62.5228 67 57 67C51.4772 67 47 62.5228 47 57C47 51.4772 51.4772 47 57 47C62.5228 47 67 51.4772 67 57Z"/>
</mask>
<path d="M67 57C67 62.5228 62.5228 67 57 67C51.4772 67 47 62.5228 47 57C47 51.4772 51.4772 47 57 47C62.5228 47 67 51.4772 67 57Z" fill="url(#paint1_linear_0_1)"/>
<path d="M65 57C65 61.4183 61.4183 65 57 65V69C63.6274 69 69 63.6274 69 57H65ZM57 65C52.5817 65 49 61.4183 49 57H45C45 63.6274 50.3726 69 57 69V65ZM49 57C49 52.5817 52.5817 49 57 49V45C50.3726 45 45 50.3726 45 57H49ZM57 49C61.4183 49 65 52.5817 65 57H69C69 50.3726 63.6274 45 57 45V49Z" fill="white" mask="url(#path-5-outside-1_0_1)"/>
<path d="M56.5839 61.376L52.5182 55.2774C52.2966 54.9451 52.5348 54.5 52.9342 54.5H54.742C54.9038 54.5 55.0556 54.5783 55.1494 54.7102L56.5925 56.7395C56.7918 57.0198 57.2081 57.0198 57.4074 56.7395L58.8504 54.7102C58.9442 54.5783 59.0961 54.5 59.2579 54.5H61.0657C61.465 54.5 61.7032 54.9451 61.4817 55.2773L57.416 61.376C57.218 61.6728 56.7818 61.6728 56.5839 61.376Z" fill="white"/>
<defs>
<linearGradient id="paint0_linear_0_1" x1="34.5001" y1="0" x2="34.5001" y2="69" gradientUnits="userSpaceOnUse">
<stop stop-color="#7AEDCF"/>
<stop offset="0.201333" stop-color="#68CEFA"/>
<stop offset="0.403244" stop-color="#689CF8"/>
<stop offset="0.602076" stop-color="#AC57C0"/>
<stop offset="0.801867" stop-color="#E65659"/>
<stop offset="1" stop-color="#F2C241"/>
</linearGradient>
<linearGradient id="paint1_linear_0_1" x1="57" y1="47" x2="57" y2="67" gradientUnits="userSpaceOnUse">
<stop stop-color="#7AEDCF"/>
<stop offset="0.201333" stop-color="#68CEFA"/>
<stop offset="0.403244" stop-color="#689CF8"/>
<stop offset="0.602076" stop-color="#AC57C0"/>
<stop offset="0.801867" stop-color="#E65659"/>
<stop offset="1" stop-color="#F2C241"/>
</linearGradient>
</defs>
</svg>