<?xml version="1.0" encoding="UTF-8"?>
<svg width="69px" height="69px" viewBox="0 0 69 69" version="1.1" xmlns="http://www.w3.org/2000/svg" xmlns:xlink="http://www.w3.org/1999/xlink">
    <title>wDOT</title>
    <defs>
        <linearGradient x1="50%" y1="0%" x2="50%" y2="100%" id="linearGradient-1">
            <stop stop-color="#82BF00" offset="0%"></stop>
            <stop stop-color="#B9FFCF" offset="48.2954545%"></stop>
            <stop stop-color="#88FDB8" offset="100%"></stop>
        </linearGradient>
        <linearGradient x1="50%" y1="0%" x2="50%" y2="100%" id="linearGradient-2">
            <stop stop-color="#82BF00" offset="0%"></stop>
            <stop stop-color="#00922F" offset="71.5758458%"></stop>
            <stop stop-color="#059C43" offset="100%"></stop>
        </linearGradient>
        <rect id="path-3" x="0" y="0" width="24" height="24"></rect>
    </defs>
    <g id="页面-1" stroke="none" stroke-width="1" fill="none" fill-rule="evenodd">
        <g id="wDOT" transform="translate(2.000000, 2.000000)">
            <path d="M40.8837209,14.8140168 C40.8837209,17.4726623 37.2915589,19.627907 32.8605265,19.627907 C28.4293713,19.627907 24.8372093,17.4726623 24.8372093,14.8140168 C24.8372093,12.1553712 28.4293713,10 32.8605265,10 C37.2915589,10 40.8837209,12.1553712 40.8837209,14.8140168 Z M40.8837209,51.1860465 C40.8837209,53.844727 37.2915589,56 32.8605265,56 C28.4293713,56 24.8372093,53.844727 24.8372093,51.1860465 C24.8372093,48.527366 28.4293713,46.372093 32.8605265,46.372093 C37.2915589,46.372093 40.8837209,48.527366 40.8837209,51.1860465 Z M21.1460527,26.2914593 C23.2266343,22.372252 23.2130388,18.127478 21.1159811,16.8105492 C19.0188083,15.4936204 15.6321311,17.6031626 13.5516647,21.5223699 C11.4710831,25.4415772 11.4845634,29.6863512 13.5817363,31.0034053 C15.6789091,32.3203342 19.0655863,30.2107919 21.1460527,26.2914593 Z M52.1404275,34.996112 C54.2369401,36.3122532 54.2492726,40.5565643 52.168089,44.4761638 C50.0869055,48.3956379 46.7002135,50.5060758 44.6037009,49.1899345 C42.5073035,47.8737933 42.4948558,43.6293569 44.5761546,39.7098827 C46.6573382,35.7904086 50.0440301,33.6799707 52.1404275,34.996112 Z M21.1159172,49.1894518 C23.2130984,47.8723977 23.2265788,43.6276237 21.1461041,39.7084164 C19.0656293,35.7892092 15.6789385,33.6796669 13.5817572,34.9965957 C11.484576,36.3135245 11.4710956,40.5582985 13.5515704,44.4775058 C15.6321604,48.3968384 19.0188511,50.5063807 21.1159172,49.1894518 Z M52.1680974,21.5239188 C54.2492697,25.4434099 54.2369374,29.6877394 52.140436,31.0038863 C50.04405,32.3200333 46.6573762,30.2095863 44.5760886,26.2900952 C42.4949163,22.3706041 42.5072487,18.1262746 44.60375,16.8101277 C46.7001361,15.4938554 50.0868098,17.6043024 52.1680974,21.5239188 Z" id="形状" fill="#E6007A" fill-rule="nonzero"></path>
            <circle id="椭圆形" stroke="url(#linearGradient-1)" stroke-width="4" cx="32.5" cy="32.5" r="32.5"></circle>
            <path d="M65,55 C65,60.5228 60.5228,65 55,65 C49.4772,65 45,60.5228 45,55 C45,49.4772 49.4772,45 55,45 C60.5228,45 65,49.4772 65,55 Z" id="路径" fill="url(#linearGradient-2)" fill-rule="nonzero"></path>
            <g id="形状-Clipped" transform="translate(43.000000, 43.000000)">
                <mask id="mask-4" fill="white">
                    <use xlink:href="#path-3"></use>
                </mask>
                <g id="path-1"></g>
                <path d="M20,12 C20,16.4183 16.4183,20 12,20 L12,24 C18.6274,24 24,18.6274 24,12 L20,12 Z M12,20 C7.5817,20 4,16.4183 4,12 L0,12 C0,18.6274 5.3726,24 12,24 L12,20 Z M4,12 C4,7.5817 7.5817,4 12,4 L12,0 C5.3726,0 0,5.3726 0,12 L4,12 Z M12,4 C16.4183,4 20,7.5817 20,12 L24,12 C24,5.3726 18.6274,0 12,0 L12,4 Z" id="形状" fill-opacity="0.5" fill="#FFFFFF" fill-rule="nonzero" mask="url(#mask-4)"></path>
            </g>
            <g id="W" transform="translate(50.235000, 49.000000)" fill="#FFFFFF" fill-rule="nonzero" font-family="Skia-Regular_Bold, Skia" font-size="10" font-weight="bold">
                <text>
                    <tspan x="0" y="10">W</tspan>
                </text>
            </g>
        </g>
    </g>
</svg>