<?xml version="1.0" encoding="UTF-8"?>
<svg width="69px" height="69px" viewBox="0 0 69 69" version="1.1" xmlns="http://www.w3.org/2000/svg" xmlns:xlink="http://www.w3.org/1999/xlink">
    <title>vDOT</title>
    <defs>
        <rect id="path-1" x="0" y="0" width="24" height="24"></rect>
        <path d="M22,12 C22,17.5228 17.5228,22 12,22 C6.4772,22 2,17.5228 2,12 C2,6.4772 6.4772,2 12,2 C17.5228,2 22,6.4772 22,12 Z" id="path-3"></path>
    </defs>
    <g id="页面-1" stroke="none" stroke-width="1" fill="none" fill-rule="evenodd">
        <g id="vDOT" transform="translate(2.000000, 2.000000)">
            <path d="M32.5,5 C47.6878,5 60,17.3122 60,32.5 C60,47.6878 47.6878,60 32.5,60 C17.3122,60 5,47.6878 5,32.5 C5,17.3122 17.3122,5 32.5,5 Z" id="路径" fill="#FFFFFF" fill-rule="nonzero"></path>
            <path d="M38.9028,18.2562 C38.9028,20.3566 35.9751,22.0593 32.3637,22.0593 C28.7522,22.0593 25.8245,20.3566 25.8245,18.2562 C25.8245,16.1558 28.7522,14.453 32.3637,14.453 C35.9751,14.453 38.9028,16.1558 38.9028,18.2562 Z M38.9028,46.9122 C38.9028,49.0126 35.9751,50.7153 32.3637,50.7153 C28.7522,50.7153 25.8245,49.0126 25.8245,46.9122 C25.8245,44.8118 28.7522,43.1091 32.3637,43.1091 C35.9751,43.1091 38.9028,44.8118 38.9028,46.9122 Z M23.2507,27.3238 C25.0565,24.1963 25.0447,20.809 23.2246,19.7581 C21.4044,18.7072 18.465,20.3906 16.6593,23.5181 C14.8535,26.6456 14.8652,30.0329 16.6854,31.0839 C18.5056,32.1348 21.445,30.4514 23.2507,27.3238 Z M48.0412,34.0856 C49.8602,35.1358 49.8709,38.5225 48.0652,41.6501 C46.2595,44.7776 43.3211,46.4616 41.5021,45.4114 C39.6832,44.3612 39.6724,40.9744 41.4782,37.8469 C43.2839,34.7194 46.2223,33.0354 48.0412,34.0856 Z M23.2257,45.4104 C25.0459,44.3594 25.0576,40.9721 23.2519,37.8446 C21.4462,34.7171 18.5068,33.0337 16.6866,34.0846 C14.8664,35.1355 14.8547,38.5228 16.6604,41.6503 C18.4662,44.7779 21.4056,46.4613 23.2257,45.4104 Z M48.0668,23.5202 C49.8725,26.6477 49.8618,30.0344 48.0428,31.0846 C46.2239,32.1348 43.2855,30.4508 41.4797,27.3233 C39.674,24.1958 39.6847,20.8091 41.5037,19.7589 C43.3226,18.7086 46.261,20.3926 48.0668,23.5202 Z" id="形状" fill="#E6007A"></path>
            <circle id="椭圆形" stroke="#50FA82" stroke-width="4" cx="32.5" cy="32.5" r="32.5"></circle>
            <path d="M65,55 C65,60.5228 60.5228,65 55,65 C49.4772,65 45,60.5228 45,55 C45,49.4772 49.4772,45 55,45 C60.5228,45 65,49.4772 65,55 Z" id="路径" fill="#50FA82" fill-rule="nonzero"></path>
            <g id="Clipped" transform="translate(43.000000, 43.000000)">
                <mask id="mask-2" fill="white">
                    <use xlink:href="#path-1"></use>
                </mask>
                <g id="矩形"></g>
                <path d="M20,12 C20,16.4183 16.4183,20 12,20 L12,24 C18.6274,24 24,18.6274 24,12 L20,12 Z M12,20 C7.5817,20 4,16.4183 4,12 L0,12 C0,18.6274 5.3726,24 12,24 L12,20 Z M4,12 C4,7.5817 7.5817,4 12,4 L12,0 C5.3726,0 0,5.3726 0,12 L4,12 Z M12,4 C16.4183,4 20,7.5817 20,12 L24,12 C24,5.3726 18.6274,0 12,0 L12,4 Z" id="形状" fill="#FFFFFF" fill-rule="nonzero" mask="url(#mask-2)"></path>
                <mask id="mask-4" fill="white">
                    <use xlink:href="#path-3"></use>
                </mask>
                <g id="路径"></g>
            </g>
            <text id="W" font-family="PingFangSC-Semibold, PingFang SC" font-size="10" font-weight="500" fill="#FFF6F6">
                <tspan x="50.235" y="59">W</tspan>
            </text>
        </g>
    </g>
</svg>